<svg xmlns="http://www.w3.org/2000/svg" xmlns:xlink="http://www.w3.org/1999/xlink" width="500" zoomAndPan="magnify" viewBox="0 0 375 374.999991" height="500" preserveAspectRatio="xMidYMid meet" version="1.0"><defs><filter x="0%" y="0%" width="100%" height="100%" id="d2a0a5dad4"><feColorMatrix values="0 0 0 0 1 0 0 0 0 1 0 0 0 0 1 0 0 0 1 0" color-interpolation-filters="sRGB"/></filter><g/><mask id="c36a91c10d"><g filter="url(#d2a0a5dad4)"><rect x="-37.5" width="450" fill="#000000" y="-37.499999" height="449.999989" fill-opacity="0.05"/></g></mask><clipPath id="2a32f4b8c1"><path d="M 0 273 L 43 273 L 43 301 L 0 301 Z M 0 273 " clip-rule="nonzero"/></clipPath><clipPath id="f6eec0e9d3"><path d="M 124.980469 329.792969 L 146.542969 329.792969 L 146.542969 374.988281 L 124.980469 374.988281 Z M 124.980469 329.792969 " clip-rule="nonzero"/></clipPath><clipPath id="ca6dac39db"><path d="M 0 148 L 135 148 L 135 183 L 0 183 Z M 0 148 " clip-rule="nonzero"/></clipPath><clipPath id="ed9a016d8f"><path d="M 0 172 L 97 172 L 97 188 L 0 188 Z M 0 172 " clip-rule="nonzero"/></clipPath><clipPath id="1bb25be8a2"><path d="M 0 189 L 111 189 L 111 200 L 0 200 Z M 0 189 " clip-rule="nonzero"/></clipPath><clipPath id="f93a52206c"><path d="M 167.304688 315.355469 L 182.542969 315.355469 L 182.542969 374.988281 L 167.304688 374.988281 Z M 167.304688 315.355469 " clip-rule="nonzero"/></clipPath><clipPath id="ec71ceb356"><path d="M 173.722656 281 L 194.304688 281 L 194.304688 374.988281 L 173.722656 374.988281 Z M 173.722656 281 " clip-rule="nonzero"/></clipPath><clipPath id="671240cade"><path d="M 186.730469 312.058594 L 195.996094 312.058594 L 195.996094 374.988281 L 186.730469 374.988281 Z M 186.730469 312.058594 " clip-rule="nonzero"/></clipPath><clipPath id="3f0a87cc9b"><path d="M 193.054688 282.121094 L 207.136719 282.121094 L 207.136719 374.988281 L 193.054688 374.988281 Z M 193.054688 282.121094 " clip-rule="nonzero"/></clipPath><clipPath id="3cb5e28054"><path d="M 222.460938 279.804688 L 239.835938 279.804688 L 239.835938 374.988281 L 222.460938 374.988281 Z M 222.460938 279.804688 " clip-rule="nonzero"/></clipPath><clipPath id="ce24749521"><path d="M 231.640625 308.316406 L 246.253906 308.316406 L 246.253906 374.988281 L 231.640625 374.988281 Z M 231.640625 308.316406 " clip-rule="nonzero"/></clipPath><clipPath id="c31c500b28"><path d="M 304.882812 233.648438 L 375 233.648438 L 375 271.695312 L 304.882812 271.695312 Z M 304.882812 233.648438 " clip-rule="nonzero"/></clipPath><clipPath id="7c604345c4"><path d="M 343.644531 256.011719 L 375 256.011719 L 375 278.824219 L 343.644531 278.824219 Z M 343.644531 256.011719 " clip-rule="nonzero"/></clipPath><clipPath id="620a3f1253"><path d="M 0 236 L 128 236 L 128 311 L 0 311 Z M 0 236 " clip-rule="nonzero"/></clipPath><clipPath id="4759501ec6"><path d="M 262.46875 363.742188 L 266.035156 363.742188 L 266.035156 374.988281 L 262.46875 374.988281 Z M 262.46875 363.742188 " clip-rule="nonzero"/></clipPath><clipPath id="45d76284ff"><path d="M 302.835938 284.171875 L 375 284.171875 L 375 374.433594 L 302.835938 374.433594 Z M 302.835938 284.171875 " clip-rule="nonzero"/></clipPath><clipPath id="4875fe3300"><path d="M 283.765625 0.015625 L 375 0.015625 L 375 118.167969 L 283.765625 118.167969 Z M 283.765625 0.015625 " clip-rule="nonzero"/></clipPath><clipPath id="d91ea5a574"><path d="M 0 106 L 126 106 L 126 164 L 0 164 Z M 0 106 " clip-rule="nonzero"/></clipPath><clipPath id="e308c26814"><path d="M 0 305 L 50 305 L 50 353 L 0 353 Z M 0 305 " clip-rule="nonzero"/></clipPath><clipPath id="a7388b1b79"><path d="M 0 245 L 118 245 L 118 321 L 0 321 Z M 0 245 " clip-rule="nonzero"/></clipPath><clipPath id="3fccff636c"><path d="M 0 233 L 146 233 L 146 343 L 0 343 Z M 0 233 " clip-rule="nonzero"/></clipPath><clipPath id="366de98522"><path d="M 66.527344 362.582031 L 77.042969 362.582031 L 77.042969 374.988281 L 66.527344 374.988281 Z M 66.527344 362.582031 " clip-rule="nonzero"/></clipPath><clipPath id="d3f05bd972"><path d="M 76.328125 368.375 L 81.585938 368.375 L 81.585938 374.988281 L 76.328125 374.988281 Z M 76.328125 368.375 " clip-rule="nonzero"/></clipPath><clipPath id="1aa5c3a0b2"><path d="M 118.566406 373.632812 L 119.367188 373.632812 L 119.367188 374.988281 L 118.566406 374.988281 Z M 118.566406 373.632812 " clip-rule="nonzero"/></clipPath><clipPath id="75daa37455"><path d="M 100.210938 286.308594 L 156.34375 286.308594 L 156.34375 374.988281 L 100.210938 374.988281 Z M 100.210938 286.308594 " clip-rule="nonzero"/></clipPath><clipPath id="7f75e92255"><path d="M 72.496094 263.496094 L 158 263.496094 L 158 374.988281 L 72.496094 374.988281 Z M 72.496094 263.496094 " clip-rule="nonzero"/></clipPath><clipPath id="9dcd902b71"><path d="M 81.496094 264.121094 L 162.9375 264.121094 L 162.9375 374.988281 L 81.496094 374.988281 Z M 81.496094 264.121094 " clip-rule="nonzero"/></clipPath><clipPath id="85025f68fa"><path d="M 237.164062 268.578125 L 280.824219 268.578125 L 280.824219 374.988281 L 237.164062 374.988281 Z M 237.164062 268.578125 " clip-rule="nonzero"/></clipPath><clipPath id="d58cc8be7d"><path d="M 258.28125 310.101562 L 287.597656 310.101562 L 287.597656 374.988281 L 258.28125 374.988281 Z M 258.28125 310.101562 " clip-rule="nonzero"/></clipPath><clipPath id="410be45d00"><path d="M 275.390625 336.207031 L 294.636719 336.207031 L 294.636719 374.988281 L 275.390625 374.988281 Z M 275.390625 336.207031 " clip-rule="nonzero"/></clipPath><clipPath id="9385e37849"><path d="M 277.4375 249.0625 L 375 249.0625 L 375 341 L 277.4375 341 Z M 277.4375 249.0625 " clip-rule="nonzero"/></clipPath><clipPath id="7d1cd48ccf"><path d="M 354.160156 316.425781 L 375 316.425781 L 375 348.238281 L 354.160156 348.238281 Z M 354.160156 316.425781 " clip-rule="nonzero"/></clipPath><clipPath id="d8e0c3435e"><path d="M 353.445312 319.277344 L 375 319.277344 L 375 350.910156 L 353.445312 350.910156 Z M 353.445312 319.277344 " clip-rule="nonzero"/></clipPath><clipPath id="f4d793aba5"><path d="M 285.457031 238.28125 L 375 238.28125 L 375 303.863281 L 285.457031 303.863281 Z M 285.457031 238.28125 " clip-rule="nonzero"/></clipPath><clipPath id="5ac43bb093"><path d="M 310.765625 260.113281 L 375 260.113281 L 375 311.882812 L 310.765625 311.882812 Z M 310.765625 260.113281 " clip-rule="nonzero"/></clipPath><clipPath id="c729b009be"><path d="M 289.46875 250.222656 L 375 250.222656 L 375 321.148438 L 289.46875 321.148438 Z M 289.46875 250.222656 " clip-rule="nonzero"/></clipPath><clipPath id="0b6d1c36d6"><path d="M 315.578125 231.0625 L 375 231.0625 L 375 257.082031 L 315.578125 257.082031 Z M 315.578125 231.0625 " clip-rule="nonzero"/></clipPath><clipPath id="c1e4d5c6e4"><path d="M 286.527344 152.207031 L 375 152.207031 L 375 176.796875 L 286.527344 176.796875 Z M 286.527344 152.207031 " clip-rule="nonzero"/></clipPath><clipPath id="9c8f309e3f"><path d="M 300.785156 77 L 375 77 L 375 135.453125 L 300.785156 135.453125 Z M 300.785156 77 " clip-rule="nonzero"/></clipPath><clipPath id="d53f0c9af8"><path d="M 302.835938 85.734375 L 375 85.734375 L 375 138.574219 L 302.835938 138.574219 Z M 302.835938 85.734375 " clip-rule="nonzero"/></clipPath><clipPath id="81d655ec8e"><path d="M 268.707031 24.429688 L 375 24.429688 L 375 145.167969 L 268.707031 145.167969 Z M 268.707031 24.429688 " clip-rule="nonzero"/></clipPath><clipPath id="93e1752d76"><path d="M 363.515625 68.359375 L 375 68.359375 L 375 86.714844 L 363.515625 86.714844 Z M 363.515625 68.359375 " clip-rule="nonzero"/></clipPath><clipPath id="ca849e3030"><path d="M 365 0 L 375 0 L 375 16 L 365 16 Z M 365 0 " clip-rule="nonzero"/></clipPath><clipPath id="91e046e09b"><path d="M 0 165 L 84 165 L 84 179 L 0 179 Z M 0 165 " clip-rule="nonzero"/></clipPath><clipPath id="cf3999fa13"><path d="M 215.15625 310.101562 L 220.410156 310.101562 L 220.410156 374.988281 L 215.15625 374.988281 Z M 215.15625 310.101562 " clip-rule="nonzero"/></clipPath><clipPath id="a8cb71af94"><path d="M 222.371094 330.683594 L 226.917969 330.683594 L 226.917969 374.988281 L 222.371094 374.988281 Z M 222.371094 330.683594 " clip-rule="nonzero"/></clipPath><clipPath id="904ee34b50"><path d="M 231.550781 278.914062 L 259.617188 278.914062 L 259.617188 374.988281 L 231.550781 374.988281 Z M 231.550781 278.914062 " clip-rule="nonzero"/></clipPath><clipPath id="6ec9cf0220"><path d="M 333.574219 257.796875 L 375 257.796875 L 375 286.664062 L 333.574219 286.664062 Z M 333.574219 257.796875 " clip-rule="nonzero"/></clipPath><clipPath id="618a3b7bad"><path d="M 356.832031 165.125 L 375 165.125 L 375 170.738281 L 356.832031 170.738281 Z M 356.832031 165.125 " clip-rule="nonzero"/></clipPath><clipPath id="fa542ceba9"><path d="M 347.742188 171.453125 L 375 171.453125 L 375 177.511719 L 347.742188 177.511719 Z M 347.742188 171.453125 " clip-rule="nonzero"/></clipPath><clipPath id="199019c2d8"><path d="M 313.347656 177.691406 L 375 177.691406 L 375 186.15625 L 313.347656 186.15625 Z M 313.347656 177.691406 " clip-rule="nonzero"/></clipPath><clipPath id="ba51162759"><path d="M 341.148438 201.746094 L 375 201.746094 L 375 204.777344 L 341.148438 204.777344 Z M 341.148438 201.746094 " clip-rule="nonzero"/></clipPath><clipPath id="bf591e2d3c"><path d="M 366.457031 208.789062 L 375 208.789062 L 375 211 L 366.457031 211 Z M 366.457031 208.789062 " clip-rule="nonzero"/></clipPath><clipPath id="6f5abf9ff1"><path d="M 283.054688 206.023438 L 375 206.023438 L 375 224 L 283.054688 224 Z M 283.054688 206.023438 " clip-rule="nonzero"/></clipPath><clipPath id="a0ddc79a1e"><path d="M 320.566406 216.183594 L 375 216.183594 L 375 230.171875 L 320.566406 230.171875 Z M 320.566406 216.183594 " clip-rule="nonzero"/></clipPath><clipPath id="6875cbbdd1"><path d="M 0 11 L 146 11 L 146 153 L 0 153 Z M 0 11 " clip-rule="nonzero"/></clipPath><clipPath id="471fb4d9ae"><path d="M 0 68 L 75 68 L 75 121 L 0 121 Z M 0 68 " clip-rule="nonzero"/></clipPath><clipPath id="ec5baa776f"><path d="M 0 78 L 116 78 L 116 151 L 0 151 Z M 0 78 " clip-rule="nonzero"/></clipPath><clipPath id="0409b44a44"><path d="M 0 132 L 98 132 L 98 166 L 0 166 Z M 0 132 " clip-rule="nonzero"/></clipPath><clipPath id="600e4c5cb6"><path d="M 0 348 L 2 348 L 2 359 L 0 359 Z M 0 348 " clip-rule="nonzero"/></clipPath><clipPath id="80148163ff"><path d="M 0 334.515625 L 44.605469 334.515625 L 44.605469 374.988281 L 0 374.988281 Z M 0 334.515625 " clip-rule="nonzero"/></clipPath><clipPath id="d92ca431ac"><path d="M 34.003906 356.878906 L 52.894531 356.878906 L 52.894531 374.988281 L 34.003906 374.988281 Z M 34.003906 356.878906 " clip-rule="nonzero"/></clipPath><clipPath id="fc98ca0b78"><path d="M 0.589844 257.171875 L 145.117188 257.171875 L 145.117188 374.988281 L 0.589844 374.988281 Z M 0.589844 257.171875 " clip-rule="nonzero"/></clipPath><clipPath id="8a784f43a3"><path d="M 147.34375 358.128906 L 153.582031 358.128906 L 153.582031 374.988281 L 147.34375 374.988281 Z M 147.34375 358.128906 " clip-rule="nonzero"/></clipPath><clipPath id="247ab1acd4"><path d="M 154.296875 372.472656 L 155.1875 372.472656 L 155.1875 374.988281 L 154.296875 374.988281 Z M 154.296875 372.472656 " clip-rule="nonzero"/></clipPath><clipPath id="8dbb049761"><path d="M 139.503906 288.359375 L 175.058594 288.359375 L 175.058594 374.988281 L 139.503906 374.988281 Z M 139.503906 288.359375 " clip-rule="nonzero"/></clipPath><clipPath id="76d65f12ab"><path d="M 160.710938 284.171875 L 185.929688 284.171875 L 185.929688 374.988281 L 160.710938 374.988281 Z M 160.710938 284.171875 " clip-rule="nonzero"/></clipPath><clipPath id="b110e98b4d"><path d="M 0 203 L 49 203 L 49 208 L 0 208 Z M 0 203 " clip-rule="nonzero"/></clipPath><clipPath id="d59657e151"><path d="M 0 207 L 140 207 L 140 293 L 0 293 Z M 0 207 " clip-rule="nonzero"/></clipPath><clipPath id="555954a57e"><path d="M 302.121094 117.1875 L 375 117.1875 L 375 156.484375 L 302.121094 156.484375 Z M 302.121094 117.1875 " clip-rule="nonzero"/></clipPath><clipPath id="81d4e86591"><path d="M 305.0625 131.890625 L 375 131.890625 L 375 161.652344 L 305.0625 161.652344 Z M 305.0625 131.890625 " clip-rule="nonzero"/></clipPath><clipPath id="fbf86b4aaa"><path d="M 0 0 L 164 0 L 164 131 L 0 131 Z M 0 0 " clip-rule="nonzero"/></clipPath><clipPath id="4cc9877469"><path d="M 0 98 L 19 98 L 19 113 L 0 113 Z M 0 98 " clip-rule="nonzero"/></clipPath><clipPath id="5c6cdd6082"><path d="M 0 260.378906 L 122.753906 260.378906 L 122.753906 374.988281 L 0 374.988281 Z M 0 260.378906 " clip-rule="nonzero"/></clipPath><clipPath id="1d6ee9c9bd"><path d="M 55.121094 341.285156 L 85.863281 341.285156 L 85.863281 374.988281 L 55.121094 374.988281 Z M 55.121094 341.285156 " clip-rule="nonzero"/></clipPath><clipPath id="e8cc8cab2b"><path d="M 40.242188 254.585938 L 157.769531 254.585938 L 157.769531 374.988281 L 40.242188 374.988281 Z M 40.242188 254.585938 " clip-rule="nonzero"/></clipPath><clipPath id="8aa5b4b09e"><path d="M 132.375 297.804688 L 165.96875 297.804688 L 165.96875 374.988281 L 132.375 374.988281 Z M 132.375 297.804688 " clip-rule="nonzero"/></clipPath><clipPath id="90f8e02e19"><path d="M 290.179688 338.433594 L 310.941406 338.433594 L 310.941406 374.988281 L 290.179688 374.988281 Z M 290.179688 338.433594 " clip-rule="nonzero"/></clipPath><clipPath id="2e16db6cb5"><path d="M 260.332031 271.515625 L 348 271.515625 L 348 374.988281 L 260.332031 374.988281 Z M 260.332031 271.515625 " clip-rule="nonzero"/></clipPath><clipPath id="ff1b14cd63"><path d="M 329.566406 345.652344 L 354.425781 345.652344 L 354.425781 374.988281 L 329.566406 374.988281 Z M 329.566406 345.652344 " clip-rule="nonzero"/></clipPath><clipPath id="4eb0ffb92e"><path d="M 314.507812 323.289062 L 357.097656 323.289062 L 357.097656 374.988281 L 314.507812 374.988281 Z M 314.507812 323.289062 " clip-rule="nonzero"/></clipPath><clipPath id="06c4ae3812"><path d="M 334.378906 341.554688 L 364.941406 341.554688 L 364.941406 374.988281 L 334.378906 374.988281 Z M 334.378906 341.554688 " clip-rule="nonzero"/></clipPath><clipPath id="0d89370320"><path d="M 305.6875 304.398438 L 368.058594 304.398438 L 368.058594 374.988281 L 305.6875 374.988281 Z M 305.6875 304.398438 " clip-rule="nonzero"/></clipPath><clipPath id="74bf2d8761"><path d="M 325.019531 321.59375 L 375 321.59375 L 375 374.988281 L 325.019531 374.988281 Z M 325.019531 321.59375 " clip-rule="nonzero"/></clipPath><clipPath id="e5f8ca337e"><path d="M 322.347656 314.824219 L 375 314.824219 L 375 374.988281 L 322.347656 374.988281 Z M 322.347656 314.824219 " clip-rule="nonzero"/></clipPath><clipPath id="c2e5edb8c3"><path d="M 296 216.449219 L 375 216.449219 L 375 243.714844 L 296 243.714844 Z M 296 216.449219 " clip-rule="nonzero"/></clipPath><clipPath id="e4a21ca276"><path d="M 323.953125 228.65625 L 375 228.65625 L 375 250.308594 L 323.953125 250.308594 Z M 323.953125 228.65625 " clip-rule="nonzero"/></clipPath><clipPath id="9608e0352e"><path d="M 293.835938 93.753906 L 375 93.753906 L 375 149.441406 L 293.835938 149.441406 Z M 293.835938 93.753906 " clip-rule="nonzero"/></clipPath><clipPath id="35c194f8de"><path d="M 370 0 L 375 0 L 375 17 L 370 17 Z M 370 0 " clip-rule="nonzero"/></clipPath><clipPath id="c891779515"><rect x="0" width="375" y="0" height="375"/></clipPath><clipPath id="a01fabcc1a"><path d="M 103.199219 105.140625 L 271.949219 105.140625 L 271.949219 202.640625 L 103.199219 202.640625 Z M 103.199219 105.140625 " clip-rule="nonzero"/></clipPath><clipPath id="3b3ca11973"><path d="M 161 172 L 184 172 L 184 202.640625 L 161 202.640625 Z M 161 172 " clip-rule="nonzero"/></clipPath></defs><rect x="-37.5" width="450" fill="#ffffff" y="-37.499999" height="449.999989" fill-opacity="1"/><rect x="-37.5" width="450" fill="#222831" y="-37.499999" height="449.999989" fill-opacity="1"/><g mask="url(#c36a91c10d)"><g transform="matrix(1, 0, 0, 1, 0, 0)"><g clip-path="url(#c891779515)"><g clip-path="url(#2a32f4b8c1)"><path fill="#ffffff" d="M 42.0625 273.449219 L -14.113281 300.1875 L -14.113281 297.824219 L 3.578125 290.765625 L -3.207031 294.117188 L 42.0625 273.449219 " fill-opacity="1" fill-rule="nonzero"/></g><g clip-path="url(#f6eec0e9d3)"><path fill="#ffffff" d="M 146.484375 329.84375 L 125.875 374.988281 L 124.996094 374.988281 L 146.484375 329.84375 " fill-opacity="1" fill-rule="nonzero"/></g><g clip-path="url(#ca6dac39db)"><path fill="#ffffff" d="M 134.808594 182.566406 L -14.113281 160.199219 L -14.113281 148.8125 L 43.800781 161.417969 L 132.429688 179.378906 L 90.289062 171.535156 L 107.375 175.242188 L 18.515625 163.191406 L 134.808594 182.566406 " fill-opacity="1" fill-rule="nonzero"/></g><g clip-path="url(#ed9a016d8f)"><path fill="#ffffff" d="M 71.71875 187.421875 L -14.113281 187.832031 L -14.113281 172.824219 L 46.039062 179.433594 L 82.035156 182.871094 L 64.933594 181.511719 L 96.628906 185.003906 L 0.785156 182.121094 L 71.71875 187.421875 " fill-opacity="1" fill-rule="nonzero"/></g><g clip-path="url(#1bb25be8a2)"><path fill="#ffffff" d="M 3.238281 198.757812 L 28.527344 198.523438 L -14.113281 199.617188 L -14.113281 189.390625 L 50.410156 191.039062 L 14.734375 190.699219 L 110.507812 194.496094 L 3.238281 198.757812 " fill-opacity="1" fill-rule="nonzero"/></g><g clip-path="url(#f93a52206c)"><path fill="#ffffff" d="M 182.480469 315.425781 L 172.273438 374.988281 L 167.3125 374.988281 L 170.214844 363.617188 L 178.09375 330.703125 L 174.617188 346.371094 L 182.480469 315.425781 " fill-opacity="1" fill-rule="nonzero"/></g><g clip-path="url(#ec71ceb356)"><path fill="#ffffff" d="M 189.949219 322.304688 L 184.664062 374.988281 L 173.796875 374.988281 L 194.246094 281.007812 L 185.488281 345.585938 L 188.40625 328 L 186.007812 343.988281 L 189.949219 322.304688 " fill-opacity="1" fill-rule="nonzero"/></g><g clip-path="url(#671240cade)"><path fill="#ffffff" d="M 195.929688 312.078125 L 191.828125 374.988281 L 186.777344 374.988281 L 195.929688 312.078125 " fill-opacity="1" fill-rule="nonzero"/></g><g clip-path="url(#3f0a87cc9b)"><path fill="#ffffff" d="M 206.835938 358.316406 L 206.925781 374.988281 L 193.136719 374.988281 L 195.035156 357.671875 L 200.316406 302.300781 L 198.238281 328.589844 L 203.128906 284.105469 L 201.070312 352.730469 L 202.644531 326.566406 L 201.890625 343.578125 L 206.476562 282.1875 L 206.78125 345.332031 L 207.085938 333.636719 L 206.835938 358.316406 " fill-opacity="1" fill-rule="nonzero"/></g><g clip-path="url(#3cb5e28054)"><path fill="#ffffff" d="M 236.453125 356.847656 L 239.75 374.988281 L 232.03125 374.988281 L 231.082031 365.53125 L 225.996094 321.175781 L 228.753906 342.164062 L 222.503906 279.84375 L 230.292969 322.804688 L 225.65625 291.96875 L 236.453125 356.847656 " fill-opacity="1" fill-rule="nonzero"/></g><g clip-path="url(#ce24749521)"><path fill="#ffffff" d="M 246.179688 374.988281 L 240.71875 374.988281 L 231.675781 308.335938 L 246.179688 374.988281 " fill-opacity="1" fill-rule="nonzero"/></g><g clip-path="url(#c31c500b28)"><path fill="#ffffff" d="M 389.101562 263.421875 L 389.101562 271.660156 L 304.972656 233.730469 L 383.945312 262.042969 L 353.519531 250.082031 L 389.101562 263.421875 " fill-opacity="1" fill-rule="nonzero"/></g><g clip-path="url(#7c604345c4)"><path fill="#ffffff" d="M 343.652344 256.0625 L 389.101562 274.167969 L 389.101562 278.820312 L 352.066406 261.203125 L 378.429688 273.234375 L 343.652344 256.0625 " fill-opacity="1" fill-rule="nonzero"/></g><path fill="#ffffff" d="M 248.8125 0.015625 L 230.617188 89.839844 L 247.324219 0.015625 L 248.8125 0.015625 " fill-opacity="1" fill-rule="nonzero"/><g clip-path="url(#620a3f1253)"><path fill="#ffffff" d="M 127.824219 236.46875 L -14.113281 310.234375 L -14.113281 306.078125 L 7.71875 296.480469 L 127.824219 236.46875 " fill-opacity="1" fill-rule="nonzero"/></g><g clip-path="url(#4759501ec6)"><path fill="#ffffff" d="M 266.023438 374.988281 L 265.824219 374.988281 L 262.492188 363.777344 L 266.023438 374.988281 " fill-opacity="1" fill-rule="nonzero"/></g><g clip-path="url(#45d76284ff)"><path fill="#ffffff" d="M 389.101562 361.144531 L 389.101562 374.414062 L 302.855469 284.25 L 373.683594 347.390625 L 360.789062 335.195312 L 388.367188 360.484375 L 389.101562 361.144531 " fill-opacity="1" fill-rule="nonzero"/></g><g clip-path="url(#4875fe3300)"><path fill="#ffffff" d="M 389.101562 0.0664062 L 389.101562 17.4375 L 355.542969 49.53125 L 319.726562 84.789062 L 336.433594 67.8125 L 283.839844 118.097656 L 326.117188 70.699219 L 286.1875 112.835938 L 368.972656 22.628906 L 389.101562 0.0664062 " fill-opacity="1" fill-rule="nonzero"/></g><path fill="#ffffff" d="M 327.800781 0.015625 L 300.691406 44.316406 L 326.835938 0.015625 L 327.800781 0.015625 " fill-opacity="1" fill-rule="nonzero"/><path fill="#ffffff" d="M 280.632812 86.097656 L 319.296875 25.496094 L 295.355469 60.632812 L 329.972656 0.015625 L 337.511719 0.015625 L 280.632812 86.097656 " fill-opacity="1" fill-rule="nonzero"/><path fill="#ffffff" d="M 148.867188 19.011719 L 142.152344 0.015625 L 142.492188 0.015625 L 148.867188 19.011719 " fill-opacity="1" fill-rule="nonzero"/><path fill="#ffffff" d="M 132.804688 0.015625 L 157.894531 69.996094 L 126.320312 0.015625 L 132.804688 0.015625 " fill-opacity="1" fill-rule="nonzero"/><path fill="#ffffff" d="M 160.5625 66.683594 L 134.363281 0.015625 L 138.890625 0.015625 L 154.832031 49.90625 L 148.222656 33.789062 L 160.5625 66.683594 " fill-opacity="1" fill-rule="nonzero"/><g clip-path="url(#d91ea5a574)"><path fill="#ffffff" d="M 118.476562 162.816406 L 77.128906 148.953125 L 94.300781 155.292969 L -7.808594 126.550781 L 0 129.128906 L 101.304688 160.988281 L -5.910156 129.128906 L -14.113281 127.125 L -14.113281 106.011719 L 52.09375 133.140625 L 107.535156 154.933594 L 81.101562 145.015625 L 125.964844 163.40625 L 64.539062 143.777344 L 118.476562 162.816406 " fill-opacity="1" fill-rule="nonzero"/></g><g clip-path="url(#e308c26814)"><path fill="#ffffff" d="M 49.066406 305.164062 L -12.394531 350.277344 L 26.144531 323.753906 L -14.113281 352.425781 L -14.113281 344.242188 L 49.066406 305.164062 " fill-opacity="1" fill-rule="nonzero"/></g><g clip-path="url(#a7388b1b79)"><path fill="#ffffff" d="M 117.636719 245.855469 L -14.113281 320.28125 L -14.113281 313.3125 L 47.6875 283.53125 L 38.089844 289.136719 L 117.636719 245.855469 " fill-opacity="1" fill-rule="nonzero"/></g><g clip-path="url(#3fccff636c)"><path fill="#ffffff" d="M 56.28125 287.847656 L 119.050781 252.015625 L -14.113281 342.789062 L -14.113281 320.40625 L 84.433594 268.597656 L 67.617188 279.214844 L 145.789062 233.105469 L 56.28125 287.847656 " fill-opacity="1" fill-rule="nonzero"/></g><g clip-path="url(#366de98522)"><path fill="#ffffff" d="M 77.039062 362.597656 L 68.121094 374.988281 L 66.542969 374.988281 Z M 77.039062 362.597656 " fill-opacity="1" fill-rule="nonzero"/></g><g clip-path="url(#d3f05bd972)"><path fill="#ffffff" d="M 81.570312 368.433594 L 77.199219 374.988281 L 76.394531 374.988281 Z M 81.570312 368.433594 " fill-opacity="1" fill-rule="nonzero"/></g><g clip-path="url(#1aa5c3a0b2)"><path fill="#ffffff" d="M 118.566406 374.988281 L 119.285156 373.664062 L 118.691406 374.988281 Z M 118.566406 374.988281 " fill-opacity="1" fill-rule="nonzero"/></g><g clip-path="url(#75daa37455)"><path fill="#ffffff" d="M 156.265625 286.363281 L 118.121094 358.960938 L 141.5625 317.433594 L 112.300781 371.246094 L 127.753906 344.742188 L 113.175781 374.988281 L 100.28125 374.988281 L 106.066406 365.835938 L 154.652344 286.433594 L 132.214844 324.433594 L 156.265625 286.363281 " fill-opacity="1" fill-rule="nonzero"/></g><g clip-path="url(#7f75e92255)"><path fill="#ffffff" d="M 157.964844 263.546875 L 75.355469 374.988281 L 72.578125 374.988281 L 157.964844 263.546875 " fill-opacity="1" fill-rule="nonzero"/></g><g clip-path="url(#9dcd902b71)"><path fill="#ffffff" d="M 101.25 364.511719 L 95.265625 374.988281 L 81.515625 374.988281 L 162.871094 264.15625 L 96.683594 371.210938 L 101.25 364.511719 " fill-opacity="1" fill-rule="nonzero"/></g><g clip-path="url(#85025f68fa)"><path fill="#ffffff" d="M 266.71875 340.765625 L 280.742188 374.988281 L 271.160156 374.988281 L 237.171875 268.613281 L 264.300781 334.839844 L 262.277344 329.449219 L 266.71875 340.765625 " fill-opacity="1" fill-rule="nonzero"/></g><g clip-path="url(#d58cc8be7d)"><path fill="#ffffff" d="M 258.300781 310.144531 L 287.546875 374.988281 L 281.546875 374.988281 L 258.300781 310.144531 " fill-opacity="1" fill-rule="nonzero"/></g><g clip-path="url(#410be45d00)"><path fill="#ffffff" d="M 294.601562 374.988281 L 290.894531 374.988281 L 275.457031 336.21875 L 294.601562 374.988281 " fill-opacity="1" fill-rule="nonzero"/></g><g clip-path="url(#9385e37849)"><path fill="#ffffff" d="M 336.058594 289.691406 L 389.101562 329 L 389.101562 341 L 277.5 249.148438 L 337.027344 296.585938 L 301.101562 266.144531 L 369.976562 315.675781 L 336.058594 289.691406 " fill-opacity="1" fill-rule="nonzero"/></g><g clip-path="url(#7d1cd48ccf)"><path fill="#ffffff" d="M 354.21875 316.484375 L 389.101562 343.46875 L 389.101562 348.199219 L 354.21875 316.484375 " fill-opacity="1" fill-rule="nonzero"/></g><g clip-path="url(#d8e0c3435e)"><path fill="#ffffff" d="M 353.449219 319.347656 L 389.101562 349.847656 L 389.101562 350.832031 L 353.449219 319.347656 " fill-opacity="1" fill-rule="nonzero"/></g><g clip-path="url(#f4d793aba5)"><path fill="#ffffff" d="M 389.101562 292.808594 L 389.101562 303.804688 L 354.253906 281.796875 L 314.535156 257.492188 L 333.550781 268.722656 L 285.488281 238.351562 L 389.101562 292.808594 " fill-opacity="1" fill-rule="nonzero"/></g><g clip-path="url(#5ac43bb093)"><path fill="#ffffff" d="M 342.808594 279.125 L 389.101562 305.558594 L 389.101562 311.84375 L 310.828125 260.128906 L 375.441406 301.367188 L 342.808594 279.125 " fill-opacity="1" fill-rule="nonzero"/></g><g clip-path="url(#c729b009be)"><path fill="#ffffff" d="M 341.25 284.480469 L 389.101562 314.066406 L 389.101562 321.140625 L 289.515625 250.222656 L 371.140625 306.417969 L 341.25 284.480469 " fill-opacity="1" fill-rule="nonzero"/></g><g clip-path="url(#0b6d1c36d6)"><path fill="#ffffff" d="M 389.101562 255.757812 L 389.101562 257.0625 L 315.664062 231.117188 L 389.101562 255.757812 " fill-opacity="1" fill-rule="nonzero"/></g><g clip-path="url(#c1e4d5c6e4)"><path fill="#ffffff" d="M 389.101562 152.25 L 389.101562 153.96875 L 286.542969 176.785156 L 389.101562 152.25 " fill-opacity="1" fill-rule="nonzero"/></g><g clip-path="url(#9c8f309e3f)"><path fill="#ffffff" d="M 389.101562 77.054688 L 389.101562 84.898438 L 323.703125 122.234375 L 357.242188 99.386719 L 300.816406 135.398438 L 389.101562 77.054688 " fill-opacity="1" fill-rule="nonzero"/></g><g clip-path="url(#d53f0c9af8)"><path fill="#ffffff" d="M 302.894531 138.53125 L 389.101562 85.792969 L 389.101562 87.65625 L 302.894531 138.53125 " fill-opacity="1" fill-rule="nonzero"/></g><g clip-path="url(#81d655ec8e)"><path fill="#ffffff" d="M 272.109375 138.53125 L 389.101562 24.457031 L 389.101562 66.957031 L 327.5 108.070312 L 376.011719 69.800781 L 290.179688 131.53125 L 329.84375 97.917969 L 316.503906 108.25 L 309.339844 113.945312 L 312.6875 111.1875 L 268.796875 145.140625 L 318.113281 100.316406 L 272.109375 138.53125 " fill-opacity="1" fill-rule="nonzero"/></g><g clip-path="url(#93e1752d76)"><path fill="#ffffff" d="M 363.527344 86.636719 L 389.101562 68.421875 L 389.101562 69.03125 L 363.527344 86.636719 " fill-opacity="1" fill-rule="nonzero"/></g><path fill="#ffffff" d="M 195.085938 0.015625 L 196.394531 43.367188 L 191.632812 0.015625 L 195.085938 0.015625 " fill-opacity="1" fill-rule="nonzero"/><path fill="#ffffff" d="M 205.3125 106.691406 L 198.867188 0.015625 L 200.566406 0.015625 L 205.3125 106.691406 " fill-opacity="1" fill-rule="nonzero"/><path fill="#ffffff" d="M 188.550781 59.449219 L 192.347656 84.738281 L 183.484375 31.550781 L 177.769531 0.015625 L 186.0625 0.015625 L 196.304688 102.214844 L 188.550781 59.449219 " fill-opacity="1" fill-rule="nonzero"/><g clip-path="url(#ca849e3030)"><path fill="#ffffff" d="M 379.539062 0.015625 L 365.554688 15.84375 L 379.089844 0.015625 L 379.539062 0.015625 " fill-opacity="1" fill-rule="nonzero"/></g><path fill="#ffffff" d="M 159.234375 4.722656 L 174.726562 64.390625 L 157.390625 1.714844 L 156.890625 0.015625 L 158.25 0.015625 L 159.234375 4.722656 " fill-opacity="1" fill-rule="nonzero"/><path fill="#ffffff" d="M 179.6875 62.421875 L 163.800781 0.015625 L 168.996094 0.015625 L 179.6875 62.421875 " fill-opacity="1" fill-rule="nonzero"/><g clip-path="url(#91e046e09b)"><path fill="#ffffff" d="M 83.324219 178.519531 L -14.113281 167.34375 L -14.113281 165.035156 L -4.585938 166.414062 L -13.84375 165.804688 L 83.324219 178.519531 " fill-opacity="1" fill-rule="nonzero"/></g><g clip-path="url(#cf3999fa13)"><path fill="#ffffff" d="M 215.519531 310.179688 L 220.375 374.988281 L 215.214844 374.988281 L 215.519531 310.179688 " fill-opacity="1" fill-rule="nonzero"/></g><g clip-path="url(#a8cb71af94)"><path fill="#ffffff" d="M 226.875 374.988281 L 225.476562 374.988281 L 225.171875 364.996094 L 222.433594 330.71875 L 225.277344 360.484375 L 226.875 374.988281 " fill-opacity="1" fill-rule="nonzero"/></g><g clip-path="url(#904ee34b50)"><path fill="#ffffff" d="M 259.609375 374.988281 L 251.496094 374.988281 L 231.566406 278.964844 L 259.609375 374.988281 " fill-opacity="1" fill-rule="nonzero"/></g><g clip-path="url(#6ec9cf0220)"><path fill="#ffffff" d="M 389.101562 285.519531 L 389.101562 286.648438 L 333.660156 257.835938 L 389.101562 285.519531 " fill-opacity="1" fill-rule="nonzero"/></g><g clip-path="url(#618a3b7bad)"><path fill="#ffffff" d="M 389.101562 165.160156 L 389.101562 166.84375 L 368.597656 168.902344 L 356.90625 170.660156 L 380.953125 166.648438 L 389.101562 165.160156 " fill-opacity="1" fill-rule="nonzero"/></g><g clip-path="url(#fa542ceba9)"><path fill="#ffffff" d="M 376.082031 173.363281 L 389.101562 171.464844 L 389.101562 174.796875 L 347.824219 177.480469 L 371.425781 174.042969 L 367.199219 174.527344 L 376.082031 173.363281 " fill-opacity="1" fill-rule="nonzero"/></g><g clip-path="url(#199019c2d8)"><path fill="#ffffff" d="M 313.386719 186.078125 L 389.101562 177.75 L 389.101562 183.804688 L 313.386719 186.078125 " fill-opacity="1" fill-rule="nonzero"/></g><path fill="#ffffff" d="M 354.058594 0.015625 L 348.71875 6.78125 L 353.230469 0.015625 L 354.058594 0.015625 " fill-opacity="1" fill-rule="nonzero"/><path fill="#ffffff" d="M 357.710938 0.015625 L 300.082031 75.246094 L 355.847656 0.015625 L 357.710938 0.015625 " fill-opacity="1" fill-rule="nonzero"/><g clip-path="url(#ba51162759)"><path fill="#ffffff" d="M 389.101562 203.070312 L 389.101562 204.71875 L 341.179688 201.820312 L 371.195312 203.160156 L 389.101562 203.070312 " fill-opacity="1" fill-rule="nonzero"/></g><g clip-path="url(#bf591e2d3c)"><path fill="#ffffff" d="M 366.535156 208.839844 L 389.101562 210.628906 L 389.101562 210.988281 L 366.535156 208.839844 " fill-opacity="1" fill-rule="nonzero"/></g><g clip-path="url(#6f5abf9ff1)"><path fill="#ffffff" d="M 352.460938 212.367188 L 389.101562 216.039062 L 389.101562 223.972656 L 372.519531 220.960938 L 283.125 206.0625 L 325.617188 212.457031 L 291.339844 206.242188 L 347.324219 211.847656 L 342.703125 211.238281 L 352.460938 212.367188 " fill-opacity="1" fill-rule="nonzero"/></g><g clip-path="url(#a0ddc79a1e)"><path fill="#ffffff" d="M 320.566406 216.269531 L 389.101562 229.019531 L 389.101562 230.148438 L 320.566406 216.269531 " fill-opacity="1" fill-rule="nonzero"/></g><path fill="#ffffff" d="M 365.410156 0.0117188 L 342.167969 27.449219 L 361.902344 0.0117188 L 365.410156 0.0117188 " fill-opacity="1" fill-rule="nonzero"/><path fill="#ffffff" d="M 368.257812 0.0117188 L 338.261719 36.457031 L 367.289062 0.0117188 L 368.257812 0.0117188 " fill-opacity="1" fill-rule="nonzero"/><path fill="#ffffff" d="M 206.046875 0.015625 L 206.261719 23.886719 L 205.652344 0.015625 L 206.046875 0.015625 " fill-opacity="1" fill-rule="nonzero"/><path fill="#ffffff" d="M 213.351562 0.015625 L 210.023438 84.054688 L 206.671875 0.015625 L 213.351562 0.015625 " fill-opacity="1" fill-rule="nonzero"/><path fill="#ffffff" d="M 214.375 0.015625 L 212.835938 60.238281 L 213.40625 0.015625 L 214.375 0.015625 " fill-opacity="1" fill-rule="nonzero"/><path fill="#ffffff" d="M 175.085938 81.246094 L 149.546875 0.015625 L 150.960938 0.015625 L 175.085938 81.246094 " fill-opacity="1" fill-rule="nonzero"/><g clip-path="url(#6875cbbdd1)"><path fill="#ffffff" d="M 144.765625 152.105469 L 83.144531 112.78125 L 110.832031 131.636719 L 27.972656 84.339844 L 56.910156 102.054688 L -2.4375 67.023438 L 31.445312 88.425781 L -14.113281 64.480469 L -14.113281 11.0625 L 125.515625 125.996094 L 54.257812 69.230469 L 95.664062 104.3125 L 39.699219 64.054688 L 145.214844 147.324219 L 79.007812 103.128906 L 118.871094 132.390625 L 57.554688 94.476562 L 144.765625 152.105469 " fill-opacity="1" fill-rule="nonzero"/></g><g clip-path="url(#471fb4d9ae)"><path fill="#ffffff" d="M 74.835938 120.660156 L -14.113281 77.804688 L -14.113281 68.726562 L 3.222656 78.84375 L 50.410156 105.511719 L 27.84375 93.222656 L 74.835938 120.660156 " fill-opacity="1" fill-rule="nonzero"/></g><g clip-path="url(#ec5baa776f)"><path fill="#ffffff" d="M 115.703125 150.351562 L -14.113281 91.074219 L -14.113281 78.359375 L 90.183594 134.464844 L -12.125 89.5 L 115.703125 150.351562 " fill-opacity="1" fill-rule="nonzero"/></g><g clip-path="url(#0409b44a44)"><path fill="#ffffff" d="M -5.679688 143.546875 L 86.53125 165.589844 L -14.113281 143.207031 L -14.113281 132.335938 L 97.738281 165 L -5.679688 143.546875 " fill-opacity="1" fill-rule="nonzero"/></g><g clip-path="url(#600e4c5cb6)"><path fill="#ffffff" d="M 1.378906 348.804688 L -11.710938 357.542969 L -10.976562 358.554688 Z M 1.378906 348.804688 " fill-opacity="1" fill-rule="nonzero"/></g><g clip-path="url(#80148163ff)"><path fill="#ffffff" d="M 44.535156 334.585938 L 0.0859375 374.988281 L -7.683594 374.988281 Z M 44.535156 334.585938 " fill-opacity="1" fill-rule="nonzero"/></g><g clip-path="url(#d92ca431ac)"><path fill="#ffffff" d="M 34.003906 374.988281 L 52.863281 356.953125 L 36.78125 374.988281 Z M 34.003906 374.988281 " fill-opacity="1" fill-rule="nonzero"/></g><g clip-path="url(#fc98ca0b78)"><path fill="#ffffff" d="M 104.042969 300.152344 L 124.726562 279.789062 L 81.800781 323.414062 L 32.464844 374.988281 L 0.589844 374.988281 L 25.839844 354.019531 L 78.613281 308.871094 L 53.9375 330.664062 L 120.375 275.472656 L 74.78125 319.941406 L 145.089844 257.226562 L 104.042969 300.152344 " fill-opacity="1" fill-rule="nonzero"/></g><g clip-path="url(#8a784f43a3)"><path fill="#ffffff" d="M 147.363281 374.988281 L 153.558594 358.207031 L 148.832031 374.988281 L 147.363281 374.988281 " fill-opacity="1" fill-rule="nonzero"/></g><g clip-path="url(#247ab1acd4)"><path fill="#ffffff" d="M 154.3125 374.988281 L 155.117188 372.535156 L 154.527344 374.988281 L 154.3125 374.988281 " fill-opacity="1" fill-rule="nonzero"/></g><g clip-path="url(#8dbb049761)"><path fill="#ffffff" d="M 175.011719 288.421875 L 147.34375 374.988281 L 139.554688 374.988281 L 175.011719 288.421875 " fill-opacity="1" fill-rule="nonzero"/></g><g clip-path="url(#76d65f12ab)"><path fill="#ffffff" d="M 185.847656 284.214844 L 162.296875 374.988281 L 160.757812 374.988281 L 185.847656 284.214844 " fill-opacity="1" fill-rule="nonzero"/></g><path fill="#ffffff" d="M 344.746094 0.015625 L 330.722656 19.121094 L 342.542969 0.015625 L 344.746094 0.015625 " fill-opacity="1" fill-rule="nonzero"/><path fill="#ffffff" d="M 346.914062 0.015625 L 331.527344 21.609375 L 346.390625 0.015625 L 346.914062 0.015625 " fill-opacity="1" fill-rule="nonzero"/><path fill="#ffffff" d="M 221.179688 0.015625 L 215.234375 98.488281 L 219.601562 0.015625 L 221.179688 0.015625 " fill-opacity="1" fill-rule="nonzero"/><path fill="#ffffff" d="M 217.453125 110.488281 L 220.480469 72.453125 L 218.761719 88.085938 L 221.410156 0.015625 L 228.433594 0.015625 L 225.101562 30.382812 L 217.453125 110.488281 " fill-opacity="1" fill-rule="nonzero"/><path fill="#ffffff" d="M 235.273438 0.015625 L 231.316406 27.160156 L 224.136719 81.996094 L 228.058594 47.898438 L 231.171875 0.015625 L 235.273438 0.015625 " fill-opacity="1" fill-rule="nonzero"/><path fill="#ffffff" d="M 242.167969 0.015625 L 232.890625 51.175781 L 238.011719 0.015625 L 242.167969 0.015625 " fill-opacity="1" fill-rule="nonzero"/><g clip-path="url(#b110e98b4d)"><path fill="#ffffff" d="M -6.664062 206.992188 L -5.945312 206.992188 L -14.113281 207.601562 L -14.113281 206.4375 L 48.1875 203.679688 L -6.664062 206.992188 " fill-opacity="1" fill-rule="nonzero"/></g><g clip-path="url(#d59657e151)"><path fill="#ffffff" d="M 139.589844 223.023438 L 64.71875 249.867188 L -14.113281 275.0625 L -14.113281 292.34375 L 63.984375 257.117188 L 107.445312 238.261719 L 86.707031 246.875 Z M 135.1875 207.78125 L 89.339844 213.996094 L 123.707031 208.265625 L 51.054688 219.191406 L -14.113281 228.035156 L -14.113281 240.265625 L 50.355469 226.246094 L 110.347656 214.085938 L 81.820312 219.386719 Z M 13.359375 248.628906 L 95.984375 224.507812 L 2.953125 243.8125 L 31.929688 236.433594 L 54.296875 231.082031 L 43.65625 233.445312 L 53.132812 231.042969 L -14.113281 242.558594 L -14.113281 265.140625 L 99.90625 227.5 Z M 70.429688 207.226562 L 8.253906 212.167969 L -14.113281 212.851562 L -14.113281 216.144531 L 27.058594 211.613281 L 23.492188 211.722656 Z M 34.738281 255.292969 L 51.054688 249.273438 L -14.113281 267.613281 L -14.113281 273.34375 L 14.34375 262.832031 L 53.328125 249.058594 Z M -14.113281 219.136719 L -14.113281 224.023438 L 46.863281 215.160156 L -14.113281 219.136719 " fill-opacity="1" fill-rule="nonzero"/></g><g clip-path="url(#555954a57e)"><path fill="#ffffff" d="M 389.101562 117.273438 L 389.101562 127.894531 L 359.480469 137.367188 L 387.472656 125.90625 L 302.160156 156.476562 L 339.585938 139.605469 L 307.226562 153.039062 L 375.042969 123.613281 L 389.101562 117.273438 " fill-opacity="1" fill-rule="nonzero"/></g><g clip-path="url(#81d4e86591)"><path fill="#ffffff" d="M 389.046875 131.925781 L 389.101562 131.90625 L 389.101562 137.296875 L 327.765625 154.558594 L 345.121094 148.148438 L 305.078125 161.578125 L 389.046875 131.925781 " fill-opacity="1" fill-rule="nonzero"/></g><path fill="#ffffff" d="M 174.242188 127.320312 L 99.925781 0.015625 L 118.816406 0.015625 L 121.609375 6.371094 L 123.507812 10.523438 L 122.578125 8.574219 L 160.867188 95.679688 L 143.082031 62.640625 L 174.242188 127.320312 " fill-opacity="1" fill-rule="nonzero"/><path fill="#ffffff" d="M 162.371094 118.746094 L 81.441406 0.015625 L 94.660156 0.015625 L 95.449219 1.519531 L 162.371094 118.746094 " fill-opacity="1" fill-rule="nonzero"/><g clip-path="url(#fbf86b4aaa)"><path fill="#ffffff" d="M 135.023438 119.496094 L 92.886719 78.019531 L 134.128906 121.160156 L 83.199219 75.746094 L 113.535156 104.488281 L 72.453125 66.773438 L 120.734375 113.855469 L -14.113281 1.804688 L -14.113281 0.015625 L 79.152344 0.015625 L 104.167969 40.484375 L 95.375 28.503906 L 163.660156 130.792969 L 75.246094 18.742188 L 115.414062 74.582031 L 59.09375 8.144531 L 128.808594 98.257812 L 69.640625 33.160156 L 72.882812 36.957031 L 65.917969 29.078125 L 53.488281 15.398438 L 114.359375 88.65625 L 29.421875 1.554688 L 100.265625 81.011719 L 47.113281 30.171875 L 47.542969 30.617188 L 135.023438 119.496094 " fill-opacity="1" fill-rule="nonzero"/></g><g clip-path="url(#4cc9877469)"><path fill="#ffffff" d="M 18.445312 112.367188 L -14.113281 98.867188 L -14.113281 98.257812 L 18.445312 112.367188 " fill-opacity="1" fill-rule="nonzero"/></g><g clip-path="url(#5c6cdd6082)"><path fill="#ffffff" d="M 98.132812 282.726562 L 27.773438 342.34375 L 32.625 338.472656 L 22.507812 346.800781 L -10.765625 374.988281 L -14.113281 374.988281 L -14.113281 361.808594 L 122.667969 260.433594 L 23.386719 336.488281 L 98.132812 282.726562 " fill-opacity="1" fill-rule="nonzero"/></g><g clip-path="url(#1d6ee9c9bd)"><path fill="#ffffff" d="M 55.191406 374.988281 L 85.8125 341.304688 L 59.757812 374.988281 Z M 55.191406 374.988281 " fill-opacity="1" fill-rule="nonzero"/></g><g clip-path="url(#e8cc8cab2b)"><path fill="#ffffff" d="M 157.765625 254.613281 L 54.796875 374.988281 L 40.253906 374.988281 L 130.277344 279.96875 L 66.632812 349.328125 L 113.714844 301.046875 L 65.703125 358.835938 L 157.765625 254.613281 " fill-opacity="1" fill-rule="nonzero"/></g><g clip-path="url(#8aa5b4b09e)"><path fill="#ffffff" d="M 165.933594 297.824219 L 133.894531 374.988281 L 132.464844 374.988281 L 165.933594 297.824219 " fill-opacity="1" fill-rule="nonzero"/></g><g clip-path="url(#90f8e02e19)"><path fill="#ffffff" d="M 310.898438 374.988281 L 310.144531 374.988281 L 290.25 338.4375 L 310.898438 374.988281 " fill-opacity="1" fill-rule="nonzero"/></g><g clip-path="url(#2e16db6cb5)"><path fill="#ffffff" d="M 314.910156 333.121094 L 347.949219 374.988281 L 317.792969 374.988281 L 260.398438 274.433594 L 311.542969 349.488281 L 271.554688 284.804688 L 305.09375 330.503906 L 284.714844 300.902344 L 303.949219 327.910156 L 266.359375 271.589844 L 308.175781 324.578125 L 302.339844 316.714844 L 314.910156 333.121094 " fill-opacity="1" fill-rule="nonzero"/></g><g clip-path="url(#ff1b14cd63)"><path fill="#ffffff" d="M 329.578125 345.726562 L 354.378906 374.988281 L 350.617188 374.988281 L 329.578125 345.726562 " fill-opacity="1" fill-rule="nonzero"/></g><g clip-path="url(#4eb0ffb92e)"><path fill="#ffffff" d="M 314.570312 323.339844 L 357.066406 374.988281 L 355.703125 374.988281 L 314.570312 323.339844 " fill-opacity="1" fill-rule="nonzero"/></g><g clip-path="url(#06c4ae3812)"><path fill="#ffffff" d="M 334.464844 341.570312 L 364.855469 374.988281 L 360.304688 374.988281 L 334.464844 341.570312 " fill-opacity="1" fill-rule="nonzero"/></g><g clip-path="url(#0d89370320)"><path fill="#ffffff" d="M 305.742188 304.464844 L 368.023438 374.988281 L 366.074219 374.988281 L 305.742188 304.464844 " fill-opacity="1" fill-rule="nonzero"/></g><g clip-path="url(#74bf2d8761)"><path fill="#ffffff" d="M 325.082031 321.675781 L 377.066406 374.988281 L 369.367188 374.988281 L 325.082031 321.675781 " fill-opacity="1" fill-rule="nonzero"/></g><g clip-path="url(#e5f8ca337e)"><path fill="#ffffff" d="M 379.324219 374.988281 L 377.53125 374.988281 L 322.394531 314.90625 L 379.324219 374.988281 " fill-opacity="1" fill-rule="nonzero"/></g><g clip-path="url(#c2e5edb8c3)"><path fill="#ffffff" d="M 389.101562 235.789062 L 389.101562 243.632812 L 368.527344 237.632812 L 341.894531 230.273438 L 354.578125 233.550781 L 296.054688 216.46875 L 389.101562 235.789062 " fill-opacity="1" fill-rule="nonzero"/></g><g clip-path="url(#e4a21ca276)"><path fill="#ffffff" d="M 323.972656 228.714844 L 389.101562 244.617188 L 389.101562 250.222656 L 377.890625 246.515625 L 369.171875 243.777344 L 373.324219 245.011719 L 323.972656 228.714844 " fill-opacity="1" fill-rule="nonzero"/></g><g clip-path="url(#9608e0352e)"><path fill="#ffffff" d="M 389.101562 93.796875 L 389.101562 109.394531 L 317.273438 140.96875 L 368.0625 113.640625 L 365.265625 114.984375 L 357.371094 118.941406 L 361.078125 117.003906 L 293.847656 149.402344 L 389.101562 93.796875 " fill-opacity="1" fill-rule="nonzero"/></g><g clip-path="url(#35c194f8de)"><path fill="#ffffff" d="M 387.277344 0.0117188 L 370.820312 16.898438 L 384.839844 0.0117188 L 387.277344 0.0117188 " fill-opacity="1" fill-rule="nonzero"/></g><path fill="#ffffff" d="M 315.105469 0.015625 L 304.453125 22.128906 L 245.804688 129.9375 L 319.171875 0.015625 Z M 299.707031 0.015625 L 295.136719 11.457031 L 252.175781 109.214844 L 310.917969 0.015625 Z M 283.035156 0.015625 L 238.585938 123.972656 L 294.492188 0.015625 Z M 272.164062 0.015625 L 252.769531 68.921875 L 278.234375 0.015625 Z M 267.148438 0.015625 L 257.515625 39.445312 L 261.277344 28.058594 L 255.328125 48.0625 L 268.546875 6.046875 L 270.53125 0.015625 Z M 259.914062 0.015625 L 253.71875 29.847656 L 235.648438 99.527344 L 261.007812 7.804688 L 263.28125 0.015625 Z M 254.308594 0.015625 L 232.75 96.914062 L 255.921875 0.015625 L 254.308594 0.015625 " fill-opacity="1" fill-rule="nonzero"/></g></g></g><g clip-path="url(#a01fabcc1a)"><path fill="#f2f2f2" d="M 103.203125 151.894531 L 271.941406 105.167969 L 219.347656 202.597656 L 170.859375 170.121094 L 271.691406 105.328125 L 165.246094 169.027344 L 158.671875 201.777344 L 145.796875 165.601562 L 271.671875 105.320312 L 143.46875 163.132812 Z M 103.203125 151.894531 " fill-opacity="1" fill-rule="evenodd"/></g><g clip-path="url(#3b3ca11973)"><path fill="#f2f2f2" d="M 161.945312 202.511719 L 183.640625 182.746094 L 169.695312 172.472656 Z M 161.945312 202.511719 " fill-opacity="1" fill-rule="evenodd"/></g><g fill="#ffffff" fill-opacity="1"><g transform="translate(74.551413, 247.732805)"><g><path d="M 11.5625 -21 L 12.15625 -21.140625 C 12.238281 -21.140625 12.28125 -21.0625 12.28125 -20.90625 C 12.28125 -20.75 12.046875 -20.492188 11.578125 -20.140625 C 11.109375 -19.785156 10.539062 -19.609375 9.875 -19.609375 C 9.207031 -19.609375 8.6875 -19.796875 8.3125 -20.171875 C 7.9375 -20.554688 7.75 -21.054688 7.75 -21.671875 C 7.75 -22.972656 8.597656 -24.257812 10.296875 -25.53125 C 11.992188 -26.8125 14.078125 -27.835938 16.546875 -28.609375 C 19.023438 -29.390625 21.398438 -29.78125 23.671875 -29.78125 C 26.992188 -29.78125 29.460938 -29.238281 31.078125 -28.15625 C 32.703125 -27.070312 33.515625 -25.625 33.515625 -23.8125 C 33.515625 -21.488281 31.898438 -19.238281 28.671875 -17.0625 C 26.972656 -15.914062 25.140625 -15 23.171875 -14.3125 C 25.335938 -14.082031 27.0625 -13.382812 28.34375 -12.21875 C 29.3125 -11.34375 29.796875 -10.226562 29.796875 -8.875 C 29.796875 -7.519531 29.148438 -6.140625 27.859375 -4.734375 C 26.566406 -3.335938 24.847656 -2.175781 22.703125 -1.25 C 20.554688 -0.332031 18.363281 0.125 16.125 0.125 C 13.539062 0.125 11.640625 -0.441406 10.421875 -1.578125 C 9.867188 -2.097656 9.59375 -2.554688 9.59375 -2.953125 C 9.59375 -3.359375 9.695312 -3.789062 9.90625 -4.25 C 8.90625 -2.4375 8.175781 -1.078125 7.71875 -0.171875 C 7.507812 0.242188 7.09375 0.453125 6.46875 0.453125 C 5.84375 0.453125 5.359375 0.289062 5.015625 -0.03125 C 4.679688 -0.363281 4.515625 -0.734375 4.515625 -1.140625 C 4.515625 -1.554688 4.578125 -1.921875 4.703125 -2.234375 C 5.316406 -3.847656 7.484375 -7.625 11.203125 -13.5625 C 14.929688 -19.507812 17.210938 -22.953125 18.046875 -23.890625 C 18.484375 -24.421875 19.472656 -24.6875 21.015625 -24.6875 C 21.628906 -24.6875 21.9375 -24.550781 21.9375 -24.28125 C 21.9375 -24.070312 21.023438 -22.53125 19.203125 -19.65625 C 17.390625 -16.789062 16.441406 -15.289062 16.359375 -15.15625 C 18.265625 -15.695312 20.210938 -16.441406 22.203125 -17.390625 C 24.191406 -18.347656 25.925781 -19.425781 27.40625 -20.625 C 28.894531 -21.832031 29.640625 -22.921875 29.640625 -23.890625 C 29.640625 -25.492188 27.898438 -26.296875 24.421875 -26.296875 C 20.785156 -26.296875 17.285156 -25.332031 13.921875 -23.40625 C 13.085938 -22.925781 12.453125 -22.488281 12.015625 -22.09375 C 11.578125 -21.695312 11.359375 -21.414062 11.359375 -21.25 C 11.359375 -21.082031 11.425781 -21 11.5625 -21 Z M 15.265625 -11.203125 C 15.015625 -11.203125 14.738281 -11.488281 14.4375 -12.0625 C 13.132812 -9.976562 11.773438 -7.664062 10.359375 -5.125 C 11.003906 -6.007812 11.941406 -6.453125 13.171875 -6.453125 C 13.984375 -6.453125 14.390625 -6.351562 14.390625 -6.15625 C 14.390625 -6.070312 14.300781 -5.992188 14.125 -5.921875 C 13.582031 -5.722656 13.3125 -5.414062 13.3125 -5 C 13.3125 -4.019531 14.359375 -3.53125 16.453125 -3.53125 C 19.273438 -3.53125 21.835938 -4.515625 24.140625 -6.484375 C 25.367188 -7.523438 25.984375 -8.429688 25.984375 -9.203125 C 25.984375 -9.679688 25.484375 -10.207031 24.484375 -10.78125 C 23.328125 -11.425781 21.554688 -11.75 19.171875 -11.75 C 17.515625 -11.75 16.453125 -11.65625 15.984375 -11.46875 C 15.523438 -11.289062 15.285156 -11.203125 15.265625 -11.203125 Z M 15.265625 -11.203125 "/></g></g></g><g fill="#ffffff" fill-opacity="1"><g transform="translate(100.994333, 247.732805)"><g><path d="M 15.1875 -15.625 C 15.601562 -15.625 16.023438 -15.4375 16.453125 -15.0625 C 16.890625 -14.695312 17.109375 -14.132812 17.109375 -13.375 C 17.109375 -12.625 16.835938 -11.640625 16.296875 -10.421875 C 15.765625 -9.210938 15.035156 -7.984375 14.109375 -6.734375 C 13.179688 -5.484375 12.160156 -4.304688 11.046875 -3.203125 C 9.929688 -2.109375 8.726562 -1.207031 7.4375 -0.5 C 6.144531 0.195312 4.972656 0.546875 3.921875 0.546875 C 2.867188 0.546875 2.023438 0.21875 1.390625 -0.4375 C 0.753906 -1.101562 0.4375 -2.023438 0.4375 -3.203125 C 0.4375 -4.390625 0.722656 -5.703125 1.296875 -7.140625 C 1.878906 -8.578125 2.628906 -9.84375 3.546875 -10.9375 C 4.460938 -12.039062 5.453125 -13.03125 6.515625 -13.90625 C 8.742188 -15.695312 10.703125 -16.59375 12.390625 -16.59375 C 13.140625 -16.59375 13.707031 -16.40625 14.09375 -16.03125 C 14.226562 -15.914062 14.296875 -15.804688 14.296875 -15.703125 L 14.296875 -15.59375 C 14.484375 -15.613281 14.78125 -15.625 15.1875 -15.625 Z M 13.125 -12.90625 L 12.984375 -12.90625 C 12.503906 -12.90625 12.265625 -13.253906 12.265625 -13.953125 C 11.265625 -13.617188 10.21875 -13.039062 9.125 -12.21875 C 8.03125 -11.40625 7.050781 -10.4375 6.1875 -9.3125 C 4.4375 -7.070312 3.550781 -5.175781 3.53125 -3.625 C 3.53125 -2.863281 3.804688 -2.484375 4.359375 -2.484375 C 4.921875 -2.484375 5.753906 -2.851562 6.859375 -3.59375 C 7.972656 -4.332031 9.070312 -5.382812 10.15625 -6.75 C 11.25 -8.113281 12.0625 -9.296875 12.59375 -10.296875 C 13.132812 -11.304688 13.40625 -11.992188 13.40625 -12.359375 C 13.40625 -12.722656 13.3125 -12.90625 13.125 -12.90625 Z M 13.125 -12.90625 "/></g></g></g><g fill="#ffffff" fill-opacity="1"><g transform="translate(114.107175, 247.732805)"><g><path d="M 15.1875 -15.625 C 15.601562 -15.625 16.023438 -15.4375 16.453125 -15.0625 C 16.890625 -14.695312 17.109375 -14.132812 17.109375 -13.375 C 17.109375 -12.625 16.835938 -11.640625 16.296875 -10.421875 C 15.765625 -9.210938 15.035156 -7.984375 14.109375 -6.734375 C 13.179688 -5.484375 12.160156 -4.304688 11.046875 -3.203125 C 9.929688 -2.109375 8.726562 -1.207031 7.4375 -0.5 C 6.144531 0.195312 4.972656 0.546875 3.921875 0.546875 C 2.867188 0.546875 2.023438 0.21875 1.390625 -0.4375 C 0.753906 -1.101562 0.4375 -2.023438 0.4375 -3.203125 C 0.4375 -4.390625 0.722656 -5.703125 1.296875 -7.140625 C 1.878906 -8.578125 2.628906 -9.84375 3.546875 -10.9375 C 4.460938 -12.039062 5.453125 -13.03125 6.515625 -13.90625 C 8.742188 -15.695312 10.703125 -16.59375 12.390625 -16.59375 C 13.140625 -16.59375 13.707031 -16.40625 14.09375 -16.03125 C 14.226562 -15.914062 14.296875 -15.804688 14.296875 -15.703125 L 14.296875 -15.59375 C 14.484375 -15.613281 14.78125 -15.625 15.1875 -15.625 Z M 13.125 -12.90625 L 12.984375 -12.90625 C 12.503906 -12.90625 12.265625 -13.253906 12.265625 -13.953125 C 11.265625 -13.617188 10.21875 -13.039062 9.125 -12.21875 C 8.03125 -11.40625 7.050781 -10.4375 6.1875 -9.3125 C 4.4375 -7.070312 3.550781 -5.175781 3.53125 -3.625 C 3.53125 -2.863281 3.804688 -2.484375 4.359375 -2.484375 C 4.921875 -2.484375 5.753906 -2.851562 6.859375 -3.59375 C 7.972656 -4.332031 9.070312 -5.382812 10.15625 -6.75 C 11.25 -8.113281 12.0625 -9.296875 12.59375 -10.296875 C 13.132812 -11.304688 13.40625 -11.992188 13.40625 -12.359375 C 13.40625 -12.722656 13.3125 -12.90625 13.125 -12.90625 Z M 13.125 -12.90625 "/></g></g></g><g fill="#ffffff" fill-opacity="1"><g transform="translate(127.220016, 247.732805)"><g><path d="M 1.265625 0.125 L 0.265625 0.078125 L -0.109375 0.078125 C -0.242188 0.0351562 -0.390625 -0.0390625 -0.546875 -0.15625 C -0.703125 -0.28125 -0.820312 -0.367188 -0.90625 -0.421875 C -0.988281 -0.484375 -1.03125 -0.582031 -1.03125 -0.71875 C -1.03125 -0.863281 -0.972656 -1.117188 -0.859375 -1.484375 C 1.804688 -7.347656 4.382812 -12.035156 6.875 -15.546875 C 7.144531 -15.929688 7.582031 -16.222656 8.1875 -16.421875 C 8.800781 -16.617188 9.394531 -16.71875 9.96875 -16.71875 C 10.3125 -16.71875 10.484375 -16.453125 10.484375 -15.921875 C 10.484375 -15.765625 10.425781 -15.5625 10.3125 -15.3125 C 10.207031 -15.0625 9.9375 -14.644531 9.5 -14.0625 C 9.0625 -13.488281 8.539062 -12.832031 7.9375 -12.09375 C 7.332031 -11.363281 6.988281 -10.941406 6.90625 -10.828125 C 8.78125 -12.765625 10.472656 -14.207031 11.984375 -15.15625 C 13.492188 -16.113281 14.585938 -16.59375 15.265625 -16.59375 C 15.941406 -16.59375 16.460938 -16.394531 16.828125 -16 C 17.191406 -15.613281 17.375 -15.195312 17.375 -14.75 C 17.375 -14.3125 17.34375 -13.941406 17.28125 -13.640625 C 17.21875 -13.347656 17.101562 -13.039062 16.9375 -12.71875 C 16.769531 -12.40625 16.628906 -12.132812 16.515625 -11.90625 C 16.398438 -11.675781 16.207031 -11.378906 15.9375 -11.015625 C 15.664062 -10.660156 15.476562 -10.410156 15.375 -10.265625 C 15.269531 -10.128906 15.054688 -9.867188 14.734375 -9.484375 C 14.410156 -9.109375 14.238281 -8.898438 14.21875 -8.859375 C 14.59375 -9.242188 15.125 -9.8125 15.8125 -10.5625 C 16.5 -11.3125 17.078125 -11.9375 17.546875 -12.4375 C 18.015625 -12.945312 18.601562 -13.519531 19.3125 -14.15625 C 20.03125 -14.789062 20.695312 -15.304688 21.3125 -15.703125 C 22.78125 -16.640625 24.273438 -17.109375 25.796875 -17.109375 C 26.316406 -17.109375 26.753906 -16.941406 27.109375 -16.609375 C 27.460938 -16.285156 27.640625 -15.894531 27.640625 -15.4375 C 27.640625 -14.976562 27.085938 -13.882812 25.984375 -12.15625 C 24.878906 -10.425781 23.773438 -8.6875 22.671875 -6.9375 C 21.566406 -5.195312 21.015625 -4.101562 21.015625 -3.65625 C 21.015625 -3.019531 21.128906 -2.644531 21.359375 -2.53125 C 21.597656 -2.414062 21.878906 -2.367188 22.203125 -2.390625 C 22.535156 -2.421875 23 -2.632812 23.59375 -3.03125 C 24.1875 -3.425781 24.71875 -3.835938 25.1875 -4.265625 C 25.9375 -4.953125 26.632812 -5.613281 27.28125 -6.25 C 27.414062 -6.375 27.566406 -6.4375 27.734375 -6.4375 C 27.984375 -6.4375 28.132812 -6.238281 28.1875 -5.84375 C 28.25 -5.445312 28.28125 -5.035156 28.28125 -4.609375 C 28.28125 -4.191406 28.238281 -3.898438 28.15625 -3.734375 C 27.757812 -2.960938 26.882812 -2.023438 25.53125 -0.921875 C 24.175781 0.179688 22.878906 0.734375 21.640625 0.734375 C 21.484375 0.734375 21.375 0.726562 21.3125 0.71875 C 19.90625 0.582031 18.929688 0.195312 18.390625 -0.4375 C 17.847656 -1.070312 17.578125 -1.828125 17.578125 -2.703125 C 17.578125 -3.578125 17.875 -4.632812 18.46875 -5.875 C 19.0625 -7.125 19.710938 -8.253906 20.421875 -9.265625 C 21.140625 -10.273438 21.796875 -11.1875 22.390625 -12 C 22.984375 -12.820312 23.28125 -13.265625 23.28125 -13.328125 C 23.28125 -13.398438 23.222656 -13.4375 23.109375 -13.4375 C 22.691406 -13.4375 21.75 -12.75 20.28125 -11.375 C 17.78125 -9.039062 15.617188 -6.785156 13.796875 -4.609375 C 13.316406 -4.035156 12.179688 -2.582031 10.390625 -0.25 C 10.191406 0.03125 9.867188 0.171875 9.421875 0.171875 C 8.972656 0.171875 8.507812 0.0859375 8.03125 -0.078125 C 7.5625 -0.253906 7.328125 -0.484375 7.328125 -0.765625 C 7.328125 -0.898438 8.410156 -2.816406 10.578125 -6.515625 C 12.753906 -10.210938 13.84375 -12.226562 13.84375 -12.5625 C 13.84375 -12.894531 13.640625 -13.0625 13.234375 -13.0625 C 12.835938 -13.0625 12.007812 -12.460938 10.75 -11.265625 C 7.289062 -7.953125 4.609375 -4.660156 2.703125 -1.390625 C 2.578125 -1.203125 2.335938 -0.898438 1.984375 -0.484375 C 1.628906 -0.078125 1.390625 0.125 1.265625 0.125 Z M 1.265625 0.125 "/></g></g></g><g fill="#ffffff" fill-opacity="1"><g transform="translate(150.504735, 247.732805)"><g/></g></g><g fill="#ffffff" fill-opacity="1"><g transform="translate(156.952542, 247.732805)"><g><path d="M 5.59375 -5.640625 L 5.328125 -5.09375 C 5.328125 -4.6875 5.882812 -4.300781 7 -3.9375 C 8.113281 -3.582031 9.335938 -3.40625 10.671875 -3.40625 C 12.003906 -3.40625 13.46875 -3.601562 15.0625 -4 C 16.664062 -4.394531 18.054688 -4.878906 19.234375 -5.453125 C 20.421875 -6.023438 21.398438 -6.625 22.171875 -7.25 C 22.953125 -7.882812 23.34375 -8.4375 23.34375 -8.90625 C 23.34375 -9.488281 22.65625 -10.03125 21.28125 -10.53125 C 19.914062 -11.039062 17.929688 -11.597656 15.328125 -12.203125 C 12.722656 -12.816406 10.816406 -13.585938 9.609375 -14.515625 C 8.398438 -15.453125 7.796875 -16.582031 7.796875 -17.90625 C 7.796875 -19.238281 8.273438 -20.515625 9.234375 -21.734375 C 10.191406 -22.953125 11.4375 -24.03125 12.96875 -24.96875 C 14.507812 -25.914062 16.1875 -26.757812 18 -27.5 C 21.757812 -29.019531 25.25 -29.78125 28.46875 -29.78125 C 29.695312 -29.78125 30.78125 -29.671875 31.71875 -29.453125 C 33.53125 -29.023438 34.4375 -28.460938 34.4375 -27.765625 C 34.4375 -27.066406 34.375 -26.59375 34.25 -26.34375 C 34.125 -26.09375 34.023438 -25.925781 33.953125 -25.84375 C 33.878906 -25.757812 33.78125 -25.675781 33.65625 -25.59375 C 33.539062 -25.507812 33.457031 -25.445312 33.40625 -25.40625 C 32.800781 -24.90625 31.15625 -24.59375 28.46875 -24.46875 C 27.539062 -24.425781 27.035156 -24.375 26.953125 -24.3125 C 26.867188 -24.257812 26.796875 -24.234375 26.734375 -24.234375 C 26.671875 -24.234375 26.597656 -24.285156 26.515625 -24.390625 C 26.429688 -24.503906 26.390625 -24.6875 26.390625 -24.9375 C 26.390625 -25.1875 26.65625 -25.640625 27.1875 -26.296875 C 25.519531 -26.191406 23.738281 -25.804688 21.84375 -25.140625 C 19.957031 -24.472656 18.316406 -23.71875 16.921875 -22.875 C 15.523438 -22.03125 14.359375 -21.203125 13.421875 -20.390625 C 12.492188 -19.578125 12.03125 -19.003906 12.03125 -18.671875 C 12.03125 -18.335938 12.132812 -18.0625 12.34375 -17.84375 C 12.914062 -17.226562 14.507812 -16.585938 17.125 -15.921875 C 19.832031 -15.222656 21.632812 -14.660156 22.53125 -14.234375 C 23.4375 -13.804688 24.1875 -13.398438 24.78125 -13.015625 C 25.375 -12.640625 25.847656 -12.253906 26.203125 -11.859375 C 27.035156 -10.898438 27.453125 -9.925781 27.453125 -8.9375 C 27.453125 -7.957031 27.1875 -7.035156 26.65625 -6.171875 C 26.132812 -5.304688 25.34375 -4.472656 24.28125 -3.671875 C 23.226562 -2.867188 21.984375 -2.148438 20.546875 -1.515625 C 17.398438 -0.109375 13.65625 0.59375 9.3125 0.59375 C 6.132812 0.59375 4.109375 -0.242188 3.234375 -1.921875 C 3.003906 -2.347656 2.890625 -2.789062 2.890625 -3.25 C 2.890625 -3.707031 2.992188 -4.117188 3.203125 -4.484375 C 3.421875 -4.859375 3.679688 -5.140625 3.984375 -5.328125 C 4.566406 -5.703125 4.976562 -5.890625 5.21875 -5.890625 C 5.46875 -5.890625 5.59375 -5.804688 5.59375 -5.640625 Z M 5.59375 -5.640625 "/></g></g></g><g fill="#ffffff" fill-opacity="1"><g transform="translate(182.759723, 247.732805)"><g><path d="M 19.3125 -6.046875 C 19.414062 -5.421875 19.46875 -4.925781 19.46875 -4.5625 C 19.46875 -4.195312 19.398438 -3.878906 19.265625 -3.609375 C 19.140625 -3.347656 18.851562 -2.972656 18.40625 -2.484375 C 17.957031 -2.003906 17.425781 -1.519531 16.8125 -1.03125 C 15.3125 0.164062 13.773438 0.765625 12.203125 0.765625 C 9.941406 0.765625 8.8125 -0.234375 8.8125 -2.234375 C 8.8125 -3.972656 10.320312 -7.429688 13.34375 -12.609375 C 13.457031 -12.804688 13.535156 -12.941406 13.578125 -13.015625 C 12.523438 -12.285156 10.507812 -10.273438 7.53125 -6.984375 C 4.5625 -3.691406 2.582031 -1.363281 1.59375 0 C 1.519531 0.125 1.316406 0.257812 0.984375 0.40625 C 0.660156 0.5625 0.40625 0.640625 0.21875 0.640625 C 0.03125 0.640625 -0.164062 0.578125 -0.375 0.453125 C -0.59375 0.335938 -0.726562 0.28125 -0.78125 0.28125 C -0.957031 0.28125 -1.046875 0.222656 -1.046875 0.109375 C -1.046875 -0.00390625 -0.800781 -0.628906 -0.3125 -1.765625 C 0.164062 -2.910156 0.800781 -4.332031 1.59375 -6.03125 C 3.769531 -10.707031 7.003906 -16.789062 11.296875 -24.28125 C 12.804688 -26.90625 13.984375 -28.765625 14.828125 -29.859375 C 15.429688 -30.640625 16.441406 -31.03125 17.859375 -31.03125 C 18.160156 -31.03125 18.332031 -30.941406 18.375 -30.765625 C 18.414062 -30.585938 18.4375 -30.394531 18.4375 -30.1875 C 18.4375 -29.976562 18.394531 -29.773438 18.3125 -29.578125 L 16.125 -26.140625 C 11.769531 -19.359375 8.492188 -13.742188 6.296875 -9.296875 C 8.429688 -11.890625 10.503906 -13.890625 12.515625 -15.296875 C 13.753906 -16.179688 14.6875 -16.625 15.3125 -16.625 C 15.9375 -16.625 16.5 -16.523438 17 -16.328125 C 17.507812 -16.128906 17.765625 -15.65625 17.765625 -14.90625 C 17.765625 -14.632812 17.316406 -13.625 16.421875 -11.875 C 13.753906 -6.625 12.421875 -3.707031 12.421875 -3.125 C 12.421875 -2.539062 12.660156 -2.25 13.140625 -2.25 C 13.835938 -2.25 14.910156 -2.925781 16.359375 -4.28125 C 17.453125 -5.3125 18.144531 -5.96875 18.4375 -6.25 C 18.601562 -6.375 18.753906 -6.4375 18.890625 -6.4375 C 19.148438 -6.4375 19.289062 -6.304688 19.3125 -6.046875 Z M 19.3125 -6.046875 "/></g></g></g><g fill="#ffffff" fill-opacity="1"><g transform="translate(197.000497, 247.732805)"><g><path d="M 16.921875 -15.59375 C 17.960938 -15.59375 18.484375 -15.234375 18.484375 -14.515625 C 18.484375 -14.140625 18.390625 -13.859375 18.203125 -13.671875 C 18.023438 -13.492188 17.644531 -12.898438 17.0625 -11.890625 C 16.488281 -10.890625 15.847656 -9.609375 15.140625 -8.046875 C 14.441406 -6.484375 13.988281 -5.148438 13.78125 -4.046875 C 13.738281 -3.898438 13.71875 -3.707031 13.71875 -3.46875 C 13.71875 -2.71875 13.921875 -2.34375 14.328125 -2.34375 C 14.742188 -2.34375 15.226562 -2.535156 15.78125 -2.921875 C 16.34375 -3.304688 16.84375 -3.722656 17.28125 -4.171875 C 17.71875 -4.617188 18.144531 -5.070312 18.5625 -5.53125 C 18.988281 -6 19.238281 -6.265625 19.3125 -6.328125 C 19.394531 -6.398438 19.519531 -6.4375 19.6875 -6.4375 C 19.945312 -6.4375 20.101562 -6.238281 20.15625 -5.84375 C 20.207031 -5.445312 20.234375 -5.035156 20.234375 -4.609375 C 20.234375 -4.191406 20.195312 -3.898438 20.125 -3.734375 C 19.726562 -2.953125 18.851562 -2.015625 17.5 -0.921875 C 16.15625 0.171875 14.929688 0.71875 13.828125 0.71875 C 12.734375 0.71875 11.925781 0.382812 11.40625 -0.28125 C 10.882812 -0.957031 10.625 -1.703125 10.625 -2.515625 C 10.625 -3.328125 10.757812 -4.039062 11.03125 -4.65625 C 9.894531 -3.175781 8.59375 -1.921875 7.125 -0.890625 C 5.65625 0.128906 4.457031 0.640625 3.53125 0.640625 C 2.601562 0.640625 1.84375 0.359375 1.25 -0.203125 C 0.5 -0.898438 0.125 -1.867188 0.125 -3.109375 C 0.125 -4.347656 0.398438 -5.59375 0.953125 -6.84375 C 1.503906 -8.09375 2.226562 -9.234375 3.125 -10.265625 C 4.03125 -11.296875 5.023438 -12.234375 6.109375 -13.078125 C 8.378906 -14.859375 10.472656 -15.75 12.390625 -15.75 C 13.128906 -15.75 13.726562 -15.625 14.1875 -15.375 C 14.65625 -15.132812 14.953125 -14.828125 15.078125 -14.453125 C 15.398438 -14.953125 15.675781 -15.265625 15.90625 -15.390625 C 16.132812 -15.523438 16.472656 -15.59375 16.921875 -15.59375 Z M 14.1875 -13.3125 C 11.851562 -13.3125 9.4375 -12.007812 6.9375 -9.40625 C 6.039062 -8.476562 5.21875 -7.363281 4.46875 -6.0625 C 3.726562 -4.769531 3.359375 -3.882812 3.359375 -3.40625 C 3.359375 -2.925781 3.5 -2.6875 3.78125 -2.6875 C 4.15625 -2.6875 5.21875 -3.441406 6.96875 -4.953125 C 8.71875 -6.460938 9.878906 -7.570312 10.453125 -8.28125 C 11.085938 -9.070312 12.332031 -10.75 14.1875 -13.3125 Z M 14.1875 -13.3125 "/></g></g></g><g fill="#ffffff" fill-opacity="1"><g transform="translate(211.835999, 247.732805)"><g><path d="M 22.578125 -15.234375 L 22.328125 -16.21875 C 22.328125 -16.78125 22.519531 -17.222656 22.90625 -17.546875 C 23.300781 -17.867188 23.796875 -18.03125 24.390625 -18.03125 C 25.535156 -18.03125 26.109375 -17.296875 26.109375 -15.828125 C 26.109375 -14.773438 25.585938 -13.320312 24.546875 -11.46875 C 23.503906 -9.625 22.273438 -7.832031 20.859375 -6.09375 C 19.453125 -4.363281 17.953125 -2.859375 16.359375 -1.578125 C 14.773438 -0.304688 13.554688 0.328125 12.703125 0.328125 C 11.847656 0.328125 11.242188 0.0976562 10.890625 -0.359375 C 10.535156 -0.828125 10.359375 -1.273438 10.359375 -1.703125 C 10.359375 -2.140625 10.378906 -2.550781 10.421875 -2.9375 C 10.566406 -4.269531 10.9375 -5.546875 11.53125 -6.765625 C 10.0625 -4.847656 8.484375 -3.128906 6.796875 -1.609375 C 5.117188 -0.0859375 3.710938 0.671875 2.578125 0.671875 C 2.035156 0.671875 1.597656 0.503906 1.265625 0.171875 C 0.941406 -0.148438 0.78125 -0.703125 0.78125 -1.484375 C 0.78125 -2.273438 1.25 -3.753906 2.1875 -5.921875 C 3.132812 -8.085938 4.039062 -9.828125 4.90625 -11.140625 C 4.59375 -10.941406 4.316406 -10.84375 4.078125 -10.84375 C 3.835938 -10.84375 3.578125 -10.976562 3.296875 -11.25 C 3.015625 -11.519531 2.875 -11.726562 2.875 -11.875 C 2.875 -12.019531 2.972656 -12.238281 3.171875 -12.53125 C 3.378906 -12.820312 4.164062 -13.53125 5.53125 -14.65625 C 6.90625 -15.78125 7.84375 -16.34375 8.34375 -16.34375 C 8.851562 -16.34375 9.335938 -16.242188 9.796875 -16.046875 C 10.253906 -15.859375 10.484375 -15.597656 10.484375 -15.265625 C 10.484375 -14.929688 9.53125 -12.976562 7.625 -9.40625 C 5.726562 -5.84375 4.78125 -3.910156 4.78125 -3.609375 C 4.78125 -3.566406 4.789062 -3.546875 4.8125 -3.546875 C 5.101562 -3.546875 6.535156 -5.007812 9.109375 -7.9375 C 11.691406 -10.863281 13.722656 -13.269531 15.203125 -15.15625 C 15.398438 -15.5 15.707031 -15.671875 16.125 -15.671875 L 16.296875 -15.640625 L 17.4375 -15.875 C 17.613281 -15.875 17.785156 -15.804688 17.953125 -15.671875 C 18.128906 -15.535156 18.21875 -15.410156 18.21875 -15.296875 C 18.21875 -15.191406 17.972656 -14.703125 17.484375 -13.828125 C 16.992188 -12.953125 16.203125 -11.296875 15.109375 -8.859375 C 14.015625 -6.421875 13.46875 -4.710938 13.46875 -3.734375 C 13.46875 -3.484375 13.554688 -3.359375 13.734375 -3.359375 C 14.253906 -3.359375 15.335938 -4.296875 16.984375 -6.171875 C 18.640625 -8.054688 19.984375 -9.859375 21.015625 -11.578125 C 22.054688 -13.304688 22.578125 -14.523438 22.578125 -15.234375 Z M 22.578125 -15.234375 "/></g></g></g><g fill="#ffffff" fill-opacity="1"><g transform="translate(232.823844, 247.732805)"><g><path d="M 16.921875 -15.59375 C 17.960938 -15.59375 18.484375 -15.234375 18.484375 -14.515625 C 18.484375 -14.140625 18.390625 -13.859375 18.203125 -13.671875 C 18.023438 -13.492188 17.644531 -12.898438 17.0625 -11.890625 C 16.488281 -10.890625 15.847656 -9.609375 15.140625 -8.046875 C 14.441406 -6.484375 13.988281 -5.148438 13.78125 -4.046875 C 13.738281 -3.898438 13.71875 -3.707031 13.71875 -3.46875 C 13.71875 -2.71875 13.921875 -2.34375 14.328125 -2.34375 C 14.742188 -2.34375 15.226562 -2.535156 15.78125 -2.921875 C 16.34375 -3.304688 16.84375 -3.722656 17.28125 -4.171875 C 17.71875 -4.617188 18.144531 -5.070312 18.5625 -5.53125 C 18.988281 -6 19.238281 -6.265625 19.3125 -6.328125 C 19.394531 -6.398438 19.519531 -6.4375 19.6875 -6.4375 C 19.945312 -6.4375 20.101562 -6.238281 20.15625 -5.84375 C 20.207031 -5.445312 20.234375 -5.035156 20.234375 -4.609375 C 20.234375 -4.191406 20.195312 -3.898438 20.125 -3.734375 C 19.726562 -2.953125 18.851562 -2.015625 17.5 -0.921875 C 16.15625 0.171875 14.929688 0.71875 13.828125 0.71875 C 12.734375 0.71875 11.925781 0.382812 11.40625 -0.28125 C 10.882812 -0.957031 10.625 -1.703125 10.625 -2.515625 C 10.625 -3.328125 10.757812 -4.039062 11.03125 -4.65625 C 9.894531 -3.175781 8.59375 -1.921875 7.125 -0.890625 C 5.65625 0.128906 4.457031 0.640625 3.53125 0.640625 C 2.601562 0.640625 1.84375 0.359375 1.25 -0.203125 C 0.5 -0.898438 0.125 -1.867188 0.125 -3.109375 C 0.125 -4.347656 0.398438 -5.59375 0.953125 -6.84375 C 1.503906 -8.09375 2.226562 -9.234375 3.125 -10.265625 C 4.03125 -11.296875 5.023438 -12.234375 6.109375 -13.078125 C 8.378906 -14.859375 10.472656 -15.75 12.390625 -15.75 C 13.128906 -15.75 13.726562 -15.625 14.1875 -15.375 C 14.65625 -15.132812 14.953125 -14.828125 15.078125 -14.453125 C 15.398438 -14.953125 15.675781 -15.265625 15.90625 -15.390625 C 16.132812 -15.523438 16.472656 -15.59375 16.921875 -15.59375 Z M 14.1875 -13.3125 C 11.851562 -13.3125 9.4375 -12.007812 6.9375 -9.40625 C 6.039062 -8.476562 5.21875 -7.363281 4.46875 -6.0625 C 3.726562 -4.769531 3.359375 -3.882812 3.359375 -3.40625 C 3.359375 -2.925781 3.5 -2.6875 3.78125 -2.6875 C 4.15625 -2.6875 5.21875 -3.441406 6.96875 -4.953125 C 8.71875 -6.460938 9.878906 -7.570312 10.453125 -8.28125 C 11.085938 -9.070312 12.332031 -10.75 14.1875 -13.3125 Z M 14.1875 -13.3125 "/></g></g></g><g fill="#ffffff" fill-opacity="1"><g transform="translate(247.659345, 247.732805)"><g><path d="M 7.984375 -11.171875 C 11.203125 -14.835938 13.945312 -16.671875 16.21875 -16.671875 C 16.78125 -16.671875 17.242188 -16.503906 17.609375 -16.171875 C 17.972656 -15.835938 18.15625 -15.398438 18.15625 -14.859375 C 18.15625 -14.328125 17.773438 -13.4375 17.015625 -12.1875 C 16.253906 -10.9375 15.550781 -9.882812 14.90625 -9.03125 C 14.5625 -8.59375 14.175781 -8.375 13.75 -8.375 C 13.320312 -8.375 12.988281 -8.53125 12.75 -8.84375 C 12.507812 -9.15625 12.390625 -9.523438 12.390625 -9.953125 C 12.390625 -10.890625 12.894531 -11.953125 13.90625 -13.140625 L 13.859375 -13.1875 C 13.410156 -13.144531 12.289062 -12.253906 10.5 -10.515625 C 8.71875 -8.785156 7.203125 -7.234375 5.953125 -5.859375 C 4.703125 -4.484375 3.347656 -2.8125 1.890625 -0.84375 C 1.460938 -0.25 1.101562 0.046875 0.8125 0.046875 C 0.519531 0.046875 0.128906 -0.046875 -0.359375 -0.234375 C -0.847656 -0.421875 -1.140625 -0.554688 -1.234375 -0.640625 C -1.335938 -0.722656 -1.390625 -0.859375 -1.390625 -1.046875 C -1.390625 -1.234375 -1.332031 -1.453125 -1.21875 -1.703125 C -1.113281 -1.960938 -0.914062 -2.320312 -0.625 -2.78125 C -0.332031 -3.25 0.109375 -4.003906 0.703125 -5.046875 C 1.296875 -6.085938 2.222656 -7.660156 3.484375 -9.765625 C 4.742188 -11.867188 5.5 -13.140625 5.75 -13.578125 C 6.257812 -14.484375 6.679688 -15.140625 7.015625 -15.546875 C 7.628906 -16.328125 8.664062 -16.71875 10.125 -16.71875 C 10.457031 -16.71875 10.625 -16.507812 10.625 -16.09375 C 10.625 -15.457031 10.03125 -14.25 8.84375 -12.46875 Z M 7.984375 -11.171875 "/></g></g></g><g fill="#ffffff" fill-opacity="1"><g transform="translate(260.054417, 247.732805)"><g><path d="M 1.265625 0.125 L 0.265625 0.078125 L -0.109375 0.078125 C -0.242188 0.0351562 -0.390625 -0.0390625 -0.546875 -0.15625 C -0.703125 -0.28125 -0.820312 -0.367188 -0.90625 -0.421875 C -0.988281 -0.484375 -1.03125 -0.582031 -1.03125 -0.71875 C -1.03125 -0.863281 -0.972656 -1.117188 -0.859375 -1.484375 C 1.804688 -7.347656 4.382812 -12.035156 6.875 -15.546875 C 7.144531 -15.929688 7.582031 -16.222656 8.1875 -16.421875 C 8.800781 -16.617188 9.394531 -16.71875 9.96875 -16.71875 C 10.3125 -16.71875 10.484375 -16.453125 10.484375 -15.921875 C 10.484375 -15.765625 10.425781 -15.5625 10.3125 -15.3125 C 10.207031 -15.0625 9.9375 -14.644531 9.5 -14.0625 C 9.0625 -13.488281 8.539062 -12.832031 7.9375 -12.09375 C 7.332031 -11.363281 6.988281 -10.941406 6.90625 -10.828125 C 8.78125 -12.765625 10.472656 -14.207031 11.984375 -15.15625 C 13.492188 -16.113281 14.585938 -16.59375 15.265625 -16.59375 C 15.941406 -16.59375 16.460938 -16.394531 16.828125 -16 C 17.191406 -15.613281 17.375 -15.195312 17.375 -14.75 C 17.375 -14.3125 17.34375 -13.941406 17.28125 -13.640625 C 17.21875 -13.347656 17.101562 -13.039062 16.9375 -12.71875 C 16.769531 -12.40625 16.628906 -12.132812 16.515625 -11.90625 C 16.398438 -11.675781 16.207031 -11.378906 15.9375 -11.015625 C 15.664062 -10.660156 15.476562 -10.410156 15.375 -10.265625 C 15.269531 -10.128906 15.054688 -9.867188 14.734375 -9.484375 C 14.410156 -9.109375 14.238281 -8.898438 14.21875 -8.859375 C 14.59375 -9.242188 15.125 -9.8125 15.8125 -10.5625 C 16.5 -11.3125 17.078125 -11.9375 17.546875 -12.4375 C 18.015625 -12.945312 18.601562 -13.519531 19.3125 -14.15625 C 20.03125 -14.789062 20.695312 -15.304688 21.3125 -15.703125 C 22.78125 -16.640625 24.273438 -17.109375 25.796875 -17.109375 C 26.316406 -17.109375 26.753906 -16.941406 27.109375 -16.609375 C 27.460938 -16.285156 27.640625 -15.894531 27.640625 -15.4375 C 27.640625 -14.976562 27.085938 -13.882812 25.984375 -12.15625 C 24.878906 -10.425781 23.773438 -8.6875 22.671875 -6.9375 C 21.566406 -5.195312 21.015625 -4.101562 21.015625 -3.65625 C 21.015625 -3.019531 21.128906 -2.644531 21.359375 -2.53125 C 21.597656 -2.414062 21.878906 -2.367188 22.203125 -2.390625 C 22.535156 -2.421875 23 -2.632812 23.59375 -3.03125 C 24.1875 -3.425781 24.71875 -3.835938 25.1875 -4.265625 C 25.9375 -4.953125 26.632812 -5.613281 27.28125 -6.25 C 27.414062 -6.375 27.566406 -6.4375 27.734375 -6.4375 C 27.984375 -6.4375 28.132812 -6.238281 28.1875 -5.84375 C 28.25 -5.445312 28.28125 -5.035156 28.28125 -4.609375 C 28.28125 -4.191406 28.238281 -3.898438 28.15625 -3.734375 C 27.757812 -2.960938 26.882812 -2.023438 25.53125 -0.921875 C 24.175781 0.179688 22.878906 0.734375 21.640625 0.734375 C 21.484375 0.734375 21.375 0.726562 21.3125 0.71875 C 19.90625 0.582031 18.929688 0.195312 18.390625 -0.4375 C 17.847656 -1.070312 17.578125 -1.828125 17.578125 -2.703125 C 17.578125 -3.578125 17.875 -4.632812 18.46875 -5.875 C 19.0625 -7.125 19.710938 -8.253906 20.421875 -9.265625 C 21.140625 -10.273438 21.796875 -11.1875 22.390625 -12 C 22.984375 -12.820312 23.28125 -13.265625 23.28125 -13.328125 C 23.28125 -13.398438 23.222656 -13.4375 23.109375 -13.4375 C 22.691406 -13.4375 21.75 -12.75 20.28125 -11.375 C 17.78125 -9.039062 15.617188 -6.785156 13.796875 -4.609375 C 13.316406 -4.035156 12.179688 -2.582031 10.390625 -0.25 C 10.191406 0.03125 9.867188 0.171875 9.421875 0.171875 C 8.972656 0.171875 8.507812 0.0859375 8.03125 -0.078125 C 7.5625 -0.253906 7.328125 -0.484375 7.328125 -0.765625 C 7.328125 -0.898438 8.410156 -2.816406 10.578125 -6.515625 C 12.753906 -10.210938 13.84375 -12.226562 13.84375 -12.5625 C 13.84375 -12.894531 13.640625 -13.0625 13.234375 -13.0625 C 12.835938 -13.0625 12.007812 -12.460938 10.75 -11.265625 C 7.289062 -7.953125 4.609375 -4.660156 2.703125 -1.390625 C 2.578125 -1.203125 2.335938 -0.898438 1.984375 -0.484375 C 1.628906 -0.078125 1.390625 0.125 1.265625 0.125 Z M 1.265625 0.125 "/></g></g></g><g fill="#ffffff" fill-opacity="1"><g transform="translate(283.339126, 247.732805)"><g><path d="M 16.921875 -15.59375 C 17.960938 -15.59375 18.484375 -15.234375 18.484375 -14.515625 C 18.484375 -14.140625 18.390625 -13.859375 18.203125 -13.671875 C 18.023438 -13.492188 17.644531 -12.898438 17.0625 -11.890625 C 16.488281 -10.890625 15.847656 -9.609375 15.140625 -8.046875 C 14.441406 -6.484375 13.988281 -5.148438 13.78125 -4.046875 C 13.738281 -3.898438 13.71875 -3.707031 13.71875 -3.46875 C 13.71875 -2.71875 13.921875 -2.34375 14.328125 -2.34375 C 14.742188 -2.34375 15.226562 -2.535156 15.78125 -2.921875 C 16.34375 -3.304688 16.84375 -3.722656 17.28125 -4.171875 C 17.71875 -4.617188 18.144531 -5.070312 18.5625 -5.53125 C 18.988281 -6 19.238281 -6.265625 19.3125 -6.328125 C 19.394531 -6.398438 19.519531 -6.4375 19.6875 -6.4375 C 19.945312 -6.4375 20.101562 -6.238281 20.15625 -5.84375 C 20.207031 -5.445312 20.234375 -5.035156 20.234375 -4.609375 C 20.234375 -4.191406 20.195312 -3.898438 20.125 -3.734375 C 19.726562 -2.953125 18.851562 -2.015625 17.5 -0.921875 C 16.15625 0.171875 14.929688 0.71875 13.828125 0.71875 C 12.734375 0.71875 11.925781 0.382812 11.40625 -0.28125 C 10.882812 -0.957031 10.625 -1.703125 10.625 -2.515625 C 10.625 -3.328125 10.757812 -4.039062 11.03125 -4.65625 C 9.894531 -3.175781 8.59375 -1.921875 7.125 -0.890625 C 5.65625 0.128906 4.457031 0.640625 3.53125 0.640625 C 2.601562 0.640625 1.84375 0.359375 1.25 -0.203125 C 0.5 -0.898438 0.125 -1.867188 0.125 -3.109375 C 0.125 -4.347656 0.398438 -5.59375 0.953125 -6.84375 C 1.503906 -8.09375 2.226562 -9.234375 3.125 -10.265625 C 4.03125 -11.296875 5.023438 -12.234375 6.109375 -13.078125 C 8.378906 -14.859375 10.472656 -15.75 12.390625 -15.75 C 13.128906 -15.75 13.726562 -15.625 14.1875 -15.375 C 14.65625 -15.132812 14.953125 -14.828125 15.078125 -14.453125 C 15.398438 -14.953125 15.675781 -15.265625 15.90625 -15.390625 C 16.132812 -15.523438 16.472656 -15.59375 16.921875 -15.59375 Z M 14.1875 -13.3125 C 11.851562 -13.3125 9.4375 -12.007812 6.9375 -9.40625 C 6.039062 -8.476562 5.21875 -7.363281 4.46875 -6.0625 C 3.726562 -4.769531 3.359375 -3.882812 3.359375 -3.40625 C 3.359375 -2.925781 3.5 -2.6875 3.78125 -2.6875 C 4.15625 -2.6875 5.21875 -3.441406 6.96875 -4.953125 C 8.71875 -6.460938 9.878906 -7.570312 10.453125 -8.28125 C 11.085938 -9.070312 12.332031 -10.75 14.1875 -13.3125 Z M 14.1875 -13.3125 "/></g></g></g><g fill="#ffffff" fill-opacity="1"><g transform="translate(148.680332, 275.482686)"><g><path d="M 1.390625 -12.59375 L 6.5 -12.59375 C 7.707031 -12.59375 8.671875 -12.296875 9.390625 -11.703125 C 10.109375 -11.117188 10.46875 -10.335938 10.46875 -9.359375 C 10.46875 -8.710938 10.296875 -8.148438 9.953125 -7.671875 C 9.617188 -7.191406 9.148438 -6.820312 8.546875 -6.5625 C 9.304688 -6.34375 9.90625 -5.960938 10.34375 -5.421875 C 10.78125 -4.890625 11 -4.265625 11 -3.546875 C 11 -2.460938 10.601562 -1.597656 9.8125 -0.953125 C 9.03125 -0.316406 8 0 6.71875 0 L 1.390625 0 Z M 6.421875 -11.390625 L 2.765625 -11.390625 L 2.765625 -7.109375 L 6.421875 -7.109375 C 7.242188 -7.109375 7.894531 -7.300781 8.375 -7.6875 C 8.863281 -8.082031 9.109375 -8.601562 9.109375 -9.25 C 9.109375 -9.894531 8.863281 -10.410156 8.375 -10.796875 C 7.894531 -11.191406 7.242188 -11.390625 6.421875 -11.390625 Z M 6.609375 -1.203125 C 7.503906 -1.203125 8.222656 -1.414062 8.765625 -1.84375 C 9.316406 -2.28125 9.59375 -2.859375 9.59375 -3.578125 C 9.59375 -4.296875 9.316406 -4.867188 8.765625 -5.296875 C 8.222656 -5.734375 7.503906 -5.953125 6.609375 -5.953125 L 2.765625 -5.953125 L 2.765625 -1.203125 Z M 6.609375 -1.203125 "/></g></g></g><g fill="#ffffff" fill-opacity="1"><g transform="translate(159.534253, 275.482686)"><g><path d="M 13.765625 -6.296875 C 13.765625 -5.398438 13.597656 -4.550781 13.265625 -3.75 C 12.929688 -2.957031 12.472656 -2.269531 11.890625 -1.6875 C 11.304688 -1.101562 10.617188 -0.640625 9.828125 -0.296875 C 9.035156 0.0351562 8.191406 0.203125 7.296875 0.203125 C 6.390625 0.203125 5.535156 0.0351562 4.734375 -0.296875 C 3.941406 -0.640625 3.253906 -1.101562 2.671875 -1.6875 C 2.085938 -2.269531 1.628906 -2.957031 1.296875 -3.75 C 0.960938 -4.550781 0.796875 -5.398438 0.796875 -6.296875 C 0.796875 -7.203125 0.960938 -8.050781 1.296875 -8.84375 C 1.628906 -9.644531 2.085938 -10.335938 2.671875 -10.921875 C 3.253906 -11.503906 3.941406 -11.960938 4.734375 -12.296875 C 5.535156 -12.628906 6.390625 -12.796875 7.296875 -12.796875 C 8.191406 -12.796875 9.035156 -12.628906 9.828125 -12.296875 C 10.617188 -11.960938 11.304688 -11.503906 11.890625 -10.921875 C 12.472656 -10.335938 12.929688 -9.644531 13.265625 -8.84375 C 13.597656 -8.050781 13.765625 -7.203125 13.765625 -6.296875 Z M 12.359375 -6.296875 C 12.359375 -7.023438 12.226562 -7.710938 11.96875 -8.359375 C 11.707031 -9.003906 11.347656 -9.554688 10.890625 -10.015625 C 10.441406 -10.472656 9.90625 -10.835938 9.28125 -11.109375 C 8.664062 -11.378906 8.003906 -11.515625 7.296875 -11.515625 C 6.566406 -11.515625 5.890625 -11.378906 5.265625 -11.109375 C 4.648438 -10.835938 4.113281 -10.472656 3.65625 -10.015625 C 3.207031 -9.554688 2.851562 -9.003906 2.59375 -8.359375 C 2.332031 -7.710938 2.203125 -7.023438 2.203125 -6.296875 C 2.203125 -5.566406 2.332031 -4.882812 2.59375 -4.25 C 2.851562 -3.613281 3.207031 -3.0625 3.65625 -2.59375 C 4.113281 -2.125 4.648438 -1.753906 5.265625 -1.484375 C 5.890625 -1.210938 6.566406 -1.078125 7.296875 -1.078125 C 8.003906 -1.078125 8.664062 -1.210938 9.28125 -1.484375 C 9.90625 -1.753906 10.441406 -2.125 10.890625 -2.59375 C 11.347656 -3.0625 11.707031 -3.613281 11.96875 -4.25 C 12.226562 -4.882812 12.359375 -5.566406 12.359375 -6.296875 Z M 12.359375 -6.296875 "/></g></g></g><g fill="#ffffff" fill-opacity="1"><g transform="translate(173.124158, 275.482686)"><g><path d="M 13.765625 -6.296875 C 13.765625 -5.398438 13.597656 -4.550781 13.265625 -3.75 C 12.929688 -2.957031 12.472656 -2.269531 11.890625 -1.6875 C 11.304688 -1.101562 10.617188 -0.640625 9.828125 -0.296875 C 9.035156 0.0351562 8.191406 0.203125 7.296875 0.203125 C 6.390625 0.203125 5.535156 0.0351562 4.734375 -0.296875 C 3.941406 -0.640625 3.253906 -1.101562 2.671875 -1.6875 C 2.085938 -2.269531 1.628906 -2.957031 1.296875 -3.75 C 0.960938 -4.550781 0.796875 -5.398438 0.796875 -6.296875 C 0.796875 -7.203125 0.960938 -8.050781 1.296875 -8.84375 C 1.628906 -9.644531 2.085938 -10.335938 2.671875 -10.921875 C 3.253906 -11.503906 3.941406 -11.960938 4.734375 -12.296875 C 5.535156 -12.628906 6.390625 -12.796875 7.296875 -12.796875 C 8.191406 -12.796875 9.035156 -12.628906 9.828125 -12.296875 C 10.617188 -11.960938 11.304688 -11.503906 11.890625 -10.921875 C 12.472656 -10.335938 12.929688 -9.644531 13.265625 -8.84375 C 13.597656 -8.050781 13.765625 -7.203125 13.765625 -6.296875 Z M 12.359375 -6.296875 C 12.359375 -7.023438 12.226562 -7.710938 11.96875 -8.359375 C 11.707031 -9.003906 11.347656 -9.554688 10.890625 -10.015625 C 10.441406 -10.472656 9.90625 -10.835938 9.28125 -11.109375 C 8.664062 -11.378906 8.003906 -11.515625 7.296875 -11.515625 C 6.566406 -11.515625 5.890625 -11.378906 5.265625 -11.109375 C 4.648438 -10.835938 4.113281 -10.472656 3.65625 -10.015625 C 3.207031 -9.554688 2.851562 -9.003906 2.59375 -8.359375 C 2.332031 -7.710938 2.203125 -7.023438 2.203125 -6.296875 C 2.203125 -5.566406 2.332031 -4.882812 2.59375 -4.25 C 2.851562 -3.613281 3.207031 -3.0625 3.65625 -2.59375 C 4.113281 -2.125 4.648438 -1.753906 5.265625 -1.484375 C 5.890625 -1.210938 6.566406 -1.078125 7.296875 -1.078125 C 8.003906 -1.078125 8.664062 -1.210938 9.28125 -1.484375 C 9.90625 -1.753906 10.441406 -2.125 10.890625 -2.59375 C 11.347656 -3.0625 11.707031 -3.613281 11.96875 -4.25 C 12.226562 -4.882812 12.359375 -5.566406 12.359375 -6.296875 Z M 12.359375 -6.296875 "/></g></g></g><g fill="#ffffff" fill-opacity="1"><g transform="translate(186.714065, 275.482686)"><g><path d="M 1.390625 0 L 1.390625 -12.59375 L 2.765625 -12.59375 L 2.765625 -6.625 L 9.28125 -12.59375 L 11.109375 -12.59375 L 4.265625 -6.421875 L 11.25 0 L 9.3125 0 L 2.765625 -6.046875 L 2.765625 0 Z M 1.390625 0 "/></g></g></g><g fill="#ffffff" fill-opacity="1"><g transform="translate(196.847979, 275.482686)"><g><path d="M 1.390625 0 L 1.390625 -12.59375 L 2.765625 -12.59375 L 2.765625 0 Z M 1.390625 0 "/></g></g></g><g fill="#ffffff" fill-opacity="1"><g transform="translate(200.033923, 275.482686)"><g><path d="M 1.390625 -12.59375 L 2.765625 -12.59375 L 10.34375 -2.375 L 10.34375 -12.59375 L 11.65625 -12.59375 L 11.65625 0 L 10.4375 0 L 2.703125 -10.5 L 2.703125 0 L 1.390625 0 Z M 1.390625 -12.59375 "/></g></g></g><g fill="#ffffff" fill-opacity="1"><g transform="translate(212.111833, 275.482686)"><g><path d="M 13.421875 -6.03125 C 13.421875 -5.15625 13.265625 -4.335938 12.953125 -3.578125 C 12.640625 -2.816406 12.207031 -2.160156 11.65625 -1.609375 C 11.101562 -1.054688 10.457031 -0.613281 9.71875 -0.28125 C 8.976562 0.0390625 8.175781 0.203125 7.3125 0.203125 C 6.40625 0.203125 5.550781 0.03125 4.75 -0.3125 C 3.957031 -0.65625 3.269531 -1.117188 2.6875 -1.703125 C 2.101562 -2.285156 1.640625 -2.972656 1.296875 -3.765625 C 0.960938 -4.554688 0.796875 -5.398438 0.796875 -6.296875 C 0.796875 -7.203125 0.960938 -8.050781 1.296875 -8.84375 C 1.628906 -9.632812 2.085938 -10.316406 2.671875 -10.890625 C 3.253906 -11.472656 3.941406 -11.9375 4.734375 -12.28125 C 5.535156 -12.625 6.390625 -12.796875 7.296875 -12.796875 C 8.265625 -12.796875 9.179688 -12.613281 10.046875 -12.25 C 10.910156 -11.882812 11.648438 -11.378906 12.265625 -10.734375 L 11.328125 -9.78125 C 10.847656 -10.332031 10.242188 -10.757812 9.515625 -11.0625 C 8.796875 -11.363281 8.054688 -11.515625 7.296875 -11.515625 C 6.566406 -11.515625 5.890625 -11.378906 5.265625 -11.109375 C 4.648438 -10.835938 4.113281 -10.472656 3.65625 -10.015625 C 3.207031 -9.554688 2.851562 -9.003906 2.59375 -8.359375 C 2.332031 -7.710938 2.203125 -7.023438 2.203125 -6.296875 C 2.203125 -5.566406 2.332031 -4.878906 2.59375 -4.234375 C 2.851562 -3.597656 3.207031 -3.046875 3.65625 -2.578125 C 4.113281 -2.117188 4.648438 -1.753906 5.265625 -1.484375 C 5.890625 -1.210938 6.566406 -1.078125 7.296875 -1.078125 C 7.929688 -1.078125 8.523438 -1.1875 9.078125 -1.40625 C 9.640625 -1.625 10.125 -1.921875 10.53125 -2.296875 C 10.945312 -2.671875 11.285156 -3.125 11.546875 -3.65625 C 11.816406 -4.1875 11.976562 -4.753906 12.03125 -5.359375 L 7.5 -5.359375 L 7.5 -6.59375 L 13.421875 -6.59375 Z M 13.421875 -6.03125 "/></g></g></g></svg>